<mxfile host="app.diagrams.net" agent="Mozilla/5.0 (X11; Linux x86_64) AppleWebKit/537.36 (KHTML, like Gecko) Chrome/140.0.0.0 Safari/537.36" version="28.2.1">
  <diagram name="Page-1" id="PyAmtoKSgjAML0X9-Qkq">
    <mxGraphModel dx="1744" dy="1042" grid="1" gridSize="10" guides="1" tooltips="1" connect="1" arrows="1" fold="1" page="1" pageScale="1" pageWidth="1200" pageHeight="900" math="0" shadow="0">
      <root>
        <mxCell id="0" />
        <mxCell id="1" parent="0" />
        <mxCell id="9e6MzxmHjuTmwUIpaCFs-1" value="AWS Cloud" style="points=[[0,0],[0.25,0],[0.5,0],[0.75,0],[1,0],[1,0.25],[1,0.5],[1,0.75],[1,1],[0.75,1],[0.5,1],[0.25,1],[0,1],[0,0.75],[0,0.5],[0,0.25]];outlineConnect=0;gradientColor=none;html=1;whiteSpace=wrap;fontSize=12;fontStyle=0;container=1;pointerEvents=0;collapsible=0;recursiveResize=0;shape=mxgraph.aws4.group;grIcon=mxgraph.aws4.group_aws_cloud_alt;strokeColor=#232F3E;fillColor=none;verticalAlign=top;align=left;spacingLeft=30;fontColor=#232F3E;dashed=0;strokeWidth=2;" parent="1" vertex="1">
          <mxGeometry x="90" y="170" width="1000" height="440" as="geometry" />
        </mxCell>
        <mxCell id="9e6MzxmHjuTmwUIpaCFs-20" value="Availability zone" style="sketch=0;outlineConnect=0;gradientColor=none;html=1;whiteSpace=wrap;fontSize=12;fontStyle=0;shape=mxgraph.aws4.group;grIcon=mxgraph.aws4.group_availability_zone;strokeColor=#545B64;fillColor=none;verticalAlign=top;align=left;spacingLeft=30;fontColor=#545B64;dashed=1;" parent="9e6MzxmHjuTmwUIpaCFs-1" vertex="1">
          <mxGeometry x="190" y="40" width="760" height="360" as="geometry" />
        </mxCell>
        <mxCell id="9e6MzxmHjuTmwUIpaCFs-3" value="VPC" style="points=[[0,0],[0.25,0],[0.5,0],[0.75,0],[1,0],[1,0.25],[1,0.5],[1,0.75],[1,1],[0.75,1],[0.5,1],[0.25,1],[0,1],[0,0.75],[0,0.5],[0,0.25]];outlineConnect=0;gradientColor=none;html=1;whiteSpace=wrap;fontSize=12;fontStyle=0;container=1;pointerEvents=0;collapsible=0;recursiveResize=0;shape=mxgraph.aws4.group;grIcon=mxgraph.aws4.group_vpc2;strokeColor=#8C4FFF;fillColor=none;verticalAlign=top;align=left;spacingLeft=30;fontColor=#AAB7B8;dashed=0;strokeWidth=2;" parent="9e6MzxmHjuTmwUIpaCFs-1" vertex="1">
          <mxGeometry x="120" y="80" width="860" height="300" as="geometry" />
        </mxCell>
        <mxCell id="9e6MzxmHjuTmwUIpaCFs-12" value="Subnet" style="sketch=0;outlineConnect=0;gradientColor=none;html=1;whiteSpace=wrap;fontSize=12;fontStyle=0;shape=mxgraph.aws4.group;grIcon=mxgraph.aws4.group_subnet;strokeColor=#879196;fillColor=none;verticalAlign=top;align=left;spacingLeft=30;fontColor=#879196;dashed=0;strokeWidth=2;" parent="9e6MzxmHjuTmwUIpaCFs-3" vertex="1">
          <mxGeometry x="80" y="20" width="740" height="260" as="geometry" />
        </mxCell>
        <mxCell id="9e6MzxmHjuTmwUIpaCFs-23" value="" style="rounded=1;whiteSpace=wrap;html=1;fillStyle=auto;dashed=1;dashPattern=8 8;" parent="9e6MzxmHjuTmwUIpaCFs-3" vertex="1">
          <mxGeometry x="100" y="50" width="700" height="210" as="geometry" />
        </mxCell>
        <mxCell id="9e6MzxmHjuTmwUIpaCFs-25" value="" style="aspect=fixed;sketch=0;html=1;dashed=0;whitespace=wrap;verticalLabelPosition=bottom;verticalAlign=top;fillColor=#2875E2;strokeColor=#ffffff;points=[[0.005,0.63,0],[0.1,0.2,0],[0.9,0.2,0],[0.5,0,0],[0.995,0.63,0],[0.72,0.99,0],[0.5,1,0],[0.28,0.99,0]];shape=mxgraph.kubernetes.icon2;prIcon=ing;rotation=-180;" parent="9e6MzxmHjuTmwUIpaCFs-3" vertex="1">
          <mxGeometry x="730" y="141" width="50" height="48" as="geometry" />
        </mxCell>
        <mxCell id="9e6MzxmHjuTmwUIpaCFs-26" value="" style="aspect=fixed;sketch=0;html=1;dashed=0;whitespace=wrap;verticalLabelPosition=bottom;verticalAlign=top;fillColor=#2875E2;strokeColor=#ffffff;points=[[0.005,0.63,0],[0.1,0.2,0],[0.9,0.2,0],[0.5,0,0],[0.995,0.63,0],[0.72,0.99,0],[0.5,1,0],[0.28,0.99,0]];shape=mxgraph.kubernetes.icon2;prIcon=svc" parent="9e6MzxmHjuTmwUIpaCFs-3" vertex="1">
          <mxGeometry x="660" y="141" width="50" height="48" as="geometry" />
        </mxCell>
        <mxCell id="9e6MzxmHjuTmwUIpaCFs-28" value="" style="rounded=1;whiteSpace=wrap;html=1;rotation=90;fillColor=light-dark(#FFFFFF,#FFFFFF);glass=0;shadow=0;fillStyle=solid;fillOpacity=20;" parent="9e6MzxmHjuTmwUIpaCFs-3" vertex="1">
          <mxGeometry x="516.25" y="125" width="167.5" height="60" as="geometry" />
        </mxCell>
        <mxCell id="9e6MzxmHjuTmwUIpaCFs-30" value="Frontend" style="text;html=1;align=center;verticalAlign=middle;resizable=0;points=[];autosize=1;strokeColor=none;fillColor=none;" parent="9e6MzxmHjuTmwUIpaCFs-3" vertex="1">
          <mxGeometry x="565" y="235" width="70" height="30" as="geometry" />
        </mxCell>
        <mxCell id="9e6MzxmHjuTmwUIpaCFs-35" style="edgeStyle=orthogonalEdgeStyle;rounded=0;orthogonalLoop=1;jettySize=auto;html=1;entryX=1.005;entryY=0.513;entryDx=0;entryDy=0;entryPerimeter=0;shadow=1;" parent="9e6MzxmHjuTmwUIpaCFs-3" source="9e6MzxmHjuTmwUIpaCFs-25" target="9e6MzxmHjuTmwUIpaCFs-26" edge="1">
          <mxGeometry relative="1" as="geometry" />
        </mxCell>
        <mxCell id="9e6MzxmHjuTmwUIpaCFs-36" style="edgeStyle=orthogonalEdgeStyle;rounded=0;orthogonalLoop=1;jettySize=auto;html=1;entryX=0.561;entryY=-0.015;entryDx=0;entryDy=0;entryPerimeter=0;shadow=1;" parent="9e6MzxmHjuTmwUIpaCFs-3" source="9e6MzxmHjuTmwUIpaCFs-26" target="9e6MzxmHjuTmwUIpaCFs-28" edge="1">
          <mxGeometry relative="1" as="geometry" />
        </mxCell>
        <mxCell id="9e6MzxmHjuTmwUIpaCFs-50" value="" style="aspect=fixed;sketch=0;html=1;dashed=0;whitespace=wrap;verticalLabelPosition=bottom;verticalAlign=top;fillColor=#2875E2;strokeColor=#ffffff;points=[[0.005,0.63,0],[0.1,0.2,0],[0.9,0.2,0],[0.5,0,0],[0.995,0.63,0],[0.72,0.99,0],[0.5,1,0],[0.28,0.99,0]];shape=mxgraph.kubernetes.icon2;prIcon=svc" parent="9e6MzxmHjuTmwUIpaCFs-3" vertex="1">
          <mxGeometry x="495" y="136" width="50" height="48" as="geometry" />
        </mxCell>
        <mxCell id="9e6MzxmHjuTmwUIpaCFs-51" value="" style="rounded=1;whiteSpace=wrap;html=1;rotation=90;fillColor=light-dark(#FFFFFF,#FFFFFF);glass=0;shadow=0;fillStyle=solid;fillOpacity=20;" parent="9e6MzxmHjuTmwUIpaCFs-3" vertex="1">
          <mxGeometry x="351.25" y="120" width="167.5" height="60" as="geometry" />
        </mxCell>
        <mxCell id="9e6MzxmHjuTmwUIpaCFs-52" value="Backend" style="text;html=1;align=center;verticalAlign=middle;resizable=0;points=[];autosize=1;strokeColor=none;fillColor=none;" parent="9e6MzxmHjuTmwUIpaCFs-3" vertex="1">
          <mxGeometry x="400" y="230" width="70" height="30" as="geometry" />
        </mxCell>
        <mxCell id="9e6MzxmHjuTmwUIpaCFs-53" style="edgeStyle=orthogonalEdgeStyle;rounded=0;orthogonalLoop=1;jettySize=auto;html=1;entryX=1.005;entryY=0.513;entryDx=0;entryDy=0;entryPerimeter=0;exitX=0.531;exitY=1.002;exitDx=0;exitDy=0;exitPerimeter=0;shadow=1;" parent="9e6MzxmHjuTmwUIpaCFs-3" source="9e6MzxmHjuTmwUIpaCFs-28" target="9e6MzxmHjuTmwUIpaCFs-50" edge="1">
          <mxGeometry relative="1" as="geometry">
            <mxPoint x="565" y="160" as="sourcePoint" />
          </mxGeometry>
        </mxCell>
        <mxCell id="9e6MzxmHjuTmwUIpaCFs-54" style="edgeStyle=orthogonalEdgeStyle;rounded=0;orthogonalLoop=1;jettySize=auto;html=1;entryX=0.561;entryY=-0.015;entryDx=0;entryDy=0;entryPerimeter=0;shadow=1;" parent="9e6MzxmHjuTmwUIpaCFs-3" source="9e6MzxmHjuTmwUIpaCFs-50" target="9e6MzxmHjuTmwUIpaCFs-51" edge="1">
          <mxGeometry relative="1" as="geometry" />
        </mxCell>
        <mxCell id="9e6MzxmHjuTmwUIpaCFs-55" value="" style="aspect=fixed;sketch=0;html=1;dashed=0;whitespace=wrap;verticalLabelPosition=bottom;verticalAlign=top;fillColor=#2875E2;strokeColor=#ffffff;points=[[0.005,0.63,0],[0.1,0.2,0],[0.9,0.2,0],[0.5,0,0],[0.995,0.63,0],[0.72,0.99,0],[0.5,1,0],[0.28,0.99,0]];shape=mxgraph.kubernetes.icon2;prIcon=svc" parent="9e6MzxmHjuTmwUIpaCFs-3" vertex="1">
          <mxGeometry x="330" y="136" width="50" height="48" as="geometry" />
        </mxCell>
        <mxCell id="9e6MzxmHjuTmwUIpaCFs-56" value="" style="rounded=1;whiteSpace=wrap;html=1;rotation=90;fillColor=light-dark(#FFFFFF,#FFFFFF);glass=0;shadow=0;fillStyle=solid;fillOpacity=20;" parent="9e6MzxmHjuTmwUIpaCFs-3" vertex="1">
          <mxGeometry x="186.25" y="120" width="167.5" height="60" as="geometry" />
        </mxCell>
        <mxCell id="9e6MzxmHjuTmwUIpaCFs-57" value="Database" style="text;html=1;align=center;verticalAlign=middle;resizable=0;points=[];autosize=1;strokeColor=none;fillColor=none;" parent="9e6MzxmHjuTmwUIpaCFs-3" vertex="1">
          <mxGeometry x="235" y="230" width="70" height="30" as="geometry" />
        </mxCell>
        <mxCell id="9e6MzxmHjuTmwUIpaCFs-58" style="edgeStyle=orthogonalEdgeStyle;rounded=0;orthogonalLoop=1;jettySize=auto;html=1;entryX=1.005;entryY=0.513;entryDx=0;entryDy=0;entryPerimeter=0;exitX=0.56;exitY=0.992;exitDx=0;exitDy=0;exitPerimeter=0;shadow=1;" parent="9e6MzxmHjuTmwUIpaCFs-3" source="9e6MzxmHjuTmwUIpaCFs-51" target="9e6MzxmHjuTmwUIpaCFs-55" edge="1">
          <mxGeometry relative="1" as="geometry">
            <mxPoint x="400" y="160" as="sourcePoint" />
          </mxGeometry>
        </mxCell>
        <mxCell id="9e6MzxmHjuTmwUIpaCFs-59" style="edgeStyle=orthogonalEdgeStyle;rounded=0;orthogonalLoop=1;jettySize=auto;html=1;entryX=0.561;entryY=-0.015;entryDx=0;entryDy=0;entryPerimeter=0;shadow=1;" parent="9e6MzxmHjuTmwUIpaCFs-3" source="9e6MzxmHjuTmwUIpaCFs-55" target="9e6MzxmHjuTmwUIpaCFs-56" edge="1">
          <mxGeometry relative="1" as="geometry" />
        </mxCell>
        <mxCell id="9e6MzxmHjuTmwUIpaCFs-63" value="" style="aspect=fixed;sketch=0;html=1;dashed=0;whitespace=wrap;verticalLabelPosition=bottom;verticalAlign=top;fillColor=#2875E2;strokeColor=#ffffff;points=[[0.005,0.63,0],[0.1,0.2,0],[0.9,0.2,0],[0.5,0,0],[0.995,0.63,0],[0.72,0.99,0],[0.5,1,0],[0.28,0.99,0]];shape=mxgraph.kubernetes.icon2;kubernetesLabel=1;prIcon=pod" parent="9e6MzxmHjuTmwUIpaCFs-3" vertex="1">
          <mxGeometry x="249.16000000000003" y="186" width="41.67" height="40" as="geometry" />
        </mxCell>
        <mxCell id="9e6MzxmHjuTmwUIpaCFs-64" value="" style="aspect=fixed;sketch=0;html=1;dashed=0;whitespace=wrap;verticalLabelPosition=bottom;verticalAlign=top;fillColor=#2875E2;strokeColor=#ffffff;points=[[0.005,0.63,0],[0.1,0.2,0],[0.9,0.2,0],[0.5,0,0],[0.995,0.63,0],[0.72,0.99,0],[0.5,1,0],[0.28,0.99,0]];shape=mxgraph.kubernetes.icon2;kubernetesLabel=1;prIcon=pod" parent="9e6MzxmHjuTmwUIpaCFs-3" vertex="1">
          <mxGeometry x="249.16000000000003" y="77" width="41.67" height="40" as="geometry" />
        </mxCell>
        <mxCell id="9e6MzxmHjuTmwUIpaCFs-65" value="" style="aspect=fixed;sketch=0;html=1;dashed=0;whitespace=wrap;verticalLabelPosition=bottom;verticalAlign=top;fillColor=#2875E2;strokeColor=#ffffff;points=[[0.005,0.63,0],[0.1,0.2,0],[0.9,0.2,0],[0.5,0,0],[0.995,0.63,0],[0.72,0.99,0],[0.5,1,0],[0.28,0.99,0]];shape=mxgraph.kubernetes.icon2;kubernetesLabel=1;prIcon=pod" parent="9e6MzxmHjuTmwUIpaCFs-3" vertex="1">
          <mxGeometry x="249.16000000000003" y="131" width="41.67" height="40" as="geometry" />
        </mxCell>
        <mxCell id="9e6MzxmHjuTmwUIpaCFs-66" value="" style="aspect=fixed;sketch=0;html=1;dashed=0;whitespace=wrap;verticalLabelPosition=bottom;verticalAlign=top;fillColor=#2875E2;strokeColor=#ffffff;points=[[0.005,0.63,0],[0.1,0.2,0],[0.9,0.2,0],[0.5,0,0],[0.995,0.63,0],[0.72,0.99,0],[0.5,1,0],[0.28,0.99,0]];shape=mxgraph.kubernetes.icon2;kubernetesLabel=1;prIcon=pod" parent="9e6MzxmHjuTmwUIpaCFs-3" vertex="1">
          <mxGeometry x="414.16" y="185.5" width="41.67" height="40" as="geometry" />
        </mxCell>
        <mxCell id="9e6MzxmHjuTmwUIpaCFs-67" value="" style="aspect=fixed;sketch=0;html=1;dashed=0;whitespace=wrap;verticalLabelPosition=bottom;verticalAlign=top;fillColor=#2875E2;strokeColor=#ffffff;points=[[0.005,0.63,0],[0.1,0.2,0],[0.9,0.2,0],[0.5,0,0],[0.995,0.63,0],[0.72,0.99,0],[0.5,1,0],[0.28,0.99,0]];shape=mxgraph.kubernetes.icon2;kubernetesLabel=1;prIcon=pod" parent="9e6MzxmHjuTmwUIpaCFs-3" vertex="1">
          <mxGeometry x="414.16" y="76.5" width="41.67" height="40" as="geometry" />
        </mxCell>
        <mxCell id="9e6MzxmHjuTmwUIpaCFs-68" value="" style="aspect=fixed;sketch=0;html=1;dashed=0;whitespace=wrap;verticalLabelPosition=bottom;verticalAlign=top;fillColor=#2875E2;strokeColor=#ffffff;points=[[0.005,0.63,0],[0.1,0.2,0],[0.9,0.2,0],[0.5,0,0],[0.995,0.63,0],[0.72,0.99,0],[0.5,1,0],[0.28,0.99,0]];shape=mxgraph.kubernetes.icon2;kubernetesLabel=1;prIcon=pod" parent="9e6MzxmHjuTmwUIpaCFs-3" vertex="1">
          <mxGeometry x="414.16" y="130.5" width="41.67" height="40" as="geometry" />
        </mxCell>
        <mxCell id="9e6MzxmHjuTmwUIpaCFs-69" value="" style="aspect=fixed;sketch=0;html=1;dashed=0;whitespace=wrap;verticalLabelPosition=bottom;verticalAlign=top;fillColor=#2875E2;strokeColor=#ffffff;points=[[0.005,0.63,0],[0.1,0.2,0],[0.9,0.2,0],[0.5,0,0],[0.995,0.63,0],[0.72,0.99,0],[0.5,1,0],[0.28,0.99,0]];shape=mxgraph.kubernetes.icon2;kubernetesLabel=1;prIcon=pod" parent="9e6MzxmHjuTmwUIpaCFs-3" vertex="1">
          <mxGeometry x="579.16" y="186" width="41.67" height="40" as="geometry" />
        </mxCell>
        <mxCell id="9e6MzxmHjuTmwUIpaCFs-70" value="" style="aspect=fixed;sketch=0;html=1;dashed=0;whitespace=wrap;verticalLabelPosition=bottom;verticalAlign=top;fillColor=#2875E2;strokeColor=#ffffff;points=[[0.005,0.63,0],[0.1,0.2,0],[0.9,0.2,0],[0.5,0,0],[0.995,0.63,0],[0.72,0.99,0],[0.5,1,0],[0.28,0.99,0]];shape=mxgraph.kubernetes.icon2;kubernetesLabel=1;prIcon=pod" parent="9e6MzxmHjuTmwUIpaCFs-3" vertex="1">
          <mxGeometry x="579.16" y="77" width="41.67" height="40" as="geometry" />
        </mxCell>
        <mxCell id="9e6MzxmHjuTmwUIpaCFs-71" value="" style="aspect=fixed;sketch=0;html=1;dashed=0;whitespace=wrap;verticalLabelPosition=bottom;verticalAlign=top;fillColor=#2875E2;strokeColor=#ffffff;points=[[0.005,0.63,0],[0.1,0.2,0],[0.9,0.2,0],[0.5,0,0],[0.995,0.63,0],[0.72,0.99,0],[0.5,1,0],[0.28,0.99,0]];shape=mxgraph.kubernetes.icon2;kubernetesLabel=1;prIcon=pod" parent="9e6MzxmHjuTmwUIpaCFs-3" vertex="1">
          <mxGeometry x="579.16" y="131" width="41.67" height="40" as="geometry" />
        </mxCell>
        <mxCell id="9e6MzxmHjuTmwUIpaCFs-72" value="" style="aspect=fixed;sketch=0;html=1;dashed=0;whitespace=wrap;verticalLabelPosition=bottom;verticalAlign=top;fillColor=#2875E2;strokeColor=#ffffff;points=[[0.005,0.63,0],[0.1,0.2,0],[0.9,0.2,0],[0.5,0,0],[0.995,0.63,0],[0.72,0.99,0],[0.5,1,0],[0.28,0.99,0]];shape=mxgraph.kubernetes.icon2;kubernetesLabel=1;prIcon=pv" parent="9e6MzxmHjuTmwUIpaCFs-3" vertex="1">
          <mxGeometry x="120" y="98.5" width="50" height="48" as="geometry" />
        </mxCell>
        <mxCell id="9e6MzxmHjuTmwUIpaCFs-73" value="" style="aspect=fixed;sketch=0;html=1;dashed=0;whitespace=wrap;verticalLabelPosition=bottom;verticalAlign=top;fillColor=#2875E2;strokeColor=#ffffff;points=[[0.005,0.63,0],[0.1,0.2,0],[0.9,0.2,0],[0.5,0,0],[0.995,0.63,0],[0.72,0.99,0],[0.5,1,0],[0.28,0.99,0]];shape=mxgraph.kubernetes.icon2;kubernetesLabel=1;prIcon=pvc" parent="9e6MzxmHjuTmwUIpaCFs-3" vertex="1">
          <mxGeometry x="170" y="99" width="50" height="48" as="geometry" />
        </mxCell>
        <mxCell id="9e6MzxmHjuTmwUIpaCFs-74" value="" style="aspect=fixed;sketch=0;html=1;dashed=0;whitespace=wrap;verticalLabelPosition=bottom;verticalAlign=top;fillColor=#2875E2;strokeColor=#ffffff;points=[[0.005,0.63,0],[0.1,0.2,0],[0.9,0.2,0],[0.5,0,0],[0.995,0.63,0],[0.72,0.99,0],[0.5,1,0],[0.28,0.99,0]];shape=mxgraph.kubernetes.icon2;kubernetesLabel=1;prIcon=secret" parent="9e6MzxmHjuTmwUIpaCFs-3" vertex="1">
          <mxGeometry x="120" y="168.5" width="50" height="48" as="geometry" />
        </mxCell>
        <mxCell id="9e6MzxmHjuTmwUIpaCFs-75" value="" style="aspect=fixed;sketch=0;html=1;dashed=0;whitespace=wrap;verticalLabelPosition=bottom;verticalAlign=top;fillColor=#2875E2;strokeColor=#ffffff;points=[[0.005,0.63,0],[0.1,0.2,0],[0.9,0.2,0],[0.5,0,0],[0.995,0.63,0],[0.72,0.99,0],[0.5,1,0],[0.28,0.99,0]];shape=mxgraph.kubernetes.icon2;prIcon=sa" parent="9e6MzxmHjuTmwUIpaCFs-3" vertex="1">
          <mxGeometry x="170" y="168.5" width="50" height="48" as="geometry" />
        </mxCell>
        <mxCell id="9e6MzxmHjuTmwUIpaCFs-92" style="edgeStyle=orthogonalEdgeStyle;rounded=0;orthogonalLoop=1;jettySize=auto;html=1;shadow=1;" parent="9e6MzxmHjuTmwUIpaCFs-3" source="9e6MzxmHjuTmwUIpaCFs-90" target="9e6MzxmHjuTmwUIpaCFs-25" edge="1">
          <mxGeometry relative="1" as="geometry" />
        </mxCell>
        <mxCell id="9e6MzxmHjuTmwUIpaCFs-90" value="" style="points=[[0,0,0],[0.25,0,0],[0.5,0,0],[0.75,0,0],[1,0,0],[0,1,0],[0.25,1,0],[0.5,1,0],[0.75,1,0],[1,1,0],[0,0.25,0],[0,0.5,0],[0,0.75,0],[1,0.25,0],[1,0.5,0],[1,0.75,0]];outlineConnect=0;fontColor=#232F3E;fillColor=#8C4FFF;strokeColor=#ffffff;dashed=0;verticalLabelPosition=bottom;verticalAlign=top;align=center;html=1;fontSize=12;fontStyle=0;aspect=fixed;shape=mxgraph.aws4.resourceIcon;resIcon=mxgraph.aws4.elastic_load_balancing;gradientColor=default;gradientDirection=east;rotation=-180;fillStyle=cross-hatch;portConstraintRotation=0;perimeter=rectanglePerimeter;container=0;" parent="9e6MzxmHjuTmwUIpaCFs-3" vertex="1">
          <mxGeometry x="810" y="136" width="58" height="58" as="geometry" />
        </mxCell>
        <mxCell id="9e6MzxmHjuTmwUIpaCFs-104" value="&lt;font style=&quot;font-size: 10px; line-height: 100%;&quot;&gt;Helm&lt;/font&gt;" style="shape=image;html=1;verticalAlign=top;verticalLabelPosition=bottom;labelBackgroundColor=#ffffff;imageAspect=0;aspect=fixed;image=https://cdn3.iconfinder.com/data/icons/travelling-icon-set/800/helm-128.png;spacing=-6;" parent="9e6MzxmHjuTmwUIpaCFs-3" vertex="1">
          <mxGeometry x="750" y="60" width="40" height="40" as="geometry" />
        </mxCell>
        <mxCell id="9e6MzxmHjuTmwUIpaCFs-60" value="Amazon Elastic Block Store" style="sketch=0;outlineConnect=0;fontColor=#232F3E;gradientColor=none;strokeColor=#ffffff;fillColor=#232F3E;dashed=0;verticalLabelPosition=middle;verticalAlign=bottom;align=center;html=1;whiteSpace=wrap;fontSize=10;fontStyle=1;spacing=3;shape=mxgraph.aws4.productIcon;prIcon=mxgraph.aws4.elastic_block_store;" parent="9e6MzxmHjuTmwUIpaCFs-1" vertex="1">
          <mxGeometry x="20" y="180" width="80" height="110" as="geometry" />
        </mxCell>
        <mxCell id="9e6MzxmHjuTmwUIpaCFs-87" style="edgeStyle=orthogonalEdgeStyle;rounded=1;orthogonalLoop=1;jettySize=auto;html=1;exitX=0;exitY=0.5;exitDx=0;exitDy=0;curved=0;strokeWidth=2;" parent="9e6MzxmHjuTmwUIpaCFs-1" source="9e6MzxmHjuTmwUIpaCFs-23" target="9e6MzxmHjuTmwUIpaCFs-60" edge="1">
          <mxGeometry relative="1" as="geometry" />
        </mxCell>
        <mxCell id="y-YY-3M0lb4zFeIpcYg8-34" value="" style="sketch=0;outlineConnect=0;fontColor=#232F3E;gradientColor=none;fillColor=#DD344C;strokeColor=none;dashed=0;verticalLabelPosition=bottom;verticalAlign=top;align=center;html=1;fontSize=12;fontStyle=0;aspect=fixed;pointerEvents=1;shape=mxgraph.aws4.role;" vertex="1" parent="9e6MzxmHjuTmwUIpaCFs-1">
          <mxGeometry x="21" y="106" width="78" height="44" as="geometry" />
        </mxCell>
        <mxCell id="9e6MzxmHjuTmwUIpaCFs-89" value="Users" style="sketch=0;outlineConnect=0;fontColor=#232F3E;gradientColor=none;strokeColor=#232F3E;fillColor=#ffffff;dashed=0;verticalLabelPosition=bottom;verticalAlign=top;align=center;html=1;fontSize=12;fontStyle=0;aspect=fixed;shape=mxgraph.aws4.resourceIcon;resIcon=mxgraph.aws4.users;" parent="1" vertex="1">
          <mxGeometry x="1110" y="380" width="70" height="70" as="geometry" />
        </mxCell>
        <mxCell id="9e6MzxmHjuTmwUIpaCFs-94" value="" style="rounded=0;whiteSpace=wrap;html=1;dashed=1;strokeWidth=2;" parent="1" vertex="1">
          <mxGeometry x="90" y="650" width="640" height="140" as="geometry" />
        </mxCell>
        <mxCell id="9e6MzxmHjuTmwUIpaCFs-98" style="edgeStyle=orthogonalEdgeStyle;rounded=0;orthogonalLoop=1;jettySize=auto;html=1;entryX=0.5;entryY=0;entryDx=0;entryDy=0;jumpStyle=none;" parent="1" source="9e6MzxmHjuTmwUIpaCFs-95" target="9e6MzxmHjuTmwUIpaCFs-97" edge="1">
          <mxGeometry relative="1" as="geometry" />
        </mxCell>
        <mxCell id="9e6MzxmHjuTmwUIpaCFs-95" value="&lt;span style=&quot;background-color: light-dark(#ffffff, var(--ge-dark-color, #121212));&quot;&gt;DevOps&lt;/span&gt;" style="sketch=0;outlineConnect=0;fontColor=#232F3E;gradientColor=none;fillColor=#232F3D;strokeColor=none;dashed=0;verticalLabelPosition=bottom;verticalAlign=top;align=center;html=1;fontSize=12;fontStyle=0;aspect=fixed;pointerEvents=1;shape=mxgraph.aws4.authenticated_user;" parent="1" vertex="1">
          <mxGeometry x="1125" y="180" width="40" height="40" as="geometry" />
        </mxCell>
        <mxCell id="9e6MzxmHjuTmwUIpaCFs-96" style="edgeStyle=orthogonalEdgeStyle;rounded=0;orthogonalLoop=1;jettySize=auto;html=1;entryX=0;entryY=0.5;entryDx=0;entryDy=0;entryPerimeter=0;" parent="1" source="9e6MzxmHjuTmwUIpaCFs-89" target="9e6MzxmHjuTmwUIpaCFs-90" edge="1">
          <mxGeometry relative="1" as="geometry" />
        </mxCell>
        <mxCell id="9e6MzxmHjuTmwUIpaCFs-106" style="edgeStyle=orthogonalEdgeStyle;rounded=0;orthogonalLoop=1;jettySize=auto;html=1;" parent="1" source="9e6MzxmHjuTmwUIpaCFs-97" target="9e6MzxmHjuTmwUIpaCFs-1" edge="1">
          <mxGeometry relative="1" as="geometry">
            <Array as="points">
              <mxPoint x="1100" y="300" />
              <mxPoint x="1100" y="300" />
            </Array>
          </mxGeometry>
        </mxCell>
        <mxCell id="9e6MzxmHjuTmwUIpaCFs-97" value="" style="shape=image;imageAspect=0;aspect=fixed;verticalLabelPosition=bottom;verticalAlign=top;image=data:image/png,iVBORw0KGgoAAAANSUhEUgAAAgAAAAIACAMAAADDpiTIAAACmlBMVEVMaXFcTuU+PrNcTuVcTOVcTOVaTOVaTOdcTOVUVONAQLVAQLVAQLNMaXFcTOViTutaTOdAQP9ISP9aTOVYTulaTOVcTuVcTuVcTOVaSulcUOlMTOdcTuVaTOVcTOVcTOVYTOdaTOVcTuWBAP9aTOVcTOVcTOVcRulaSOVaTOVaTOVaTudcTuVcTOVaTOVcTuU6Oq8+PrFaTuVAQLU+PrNaSudAQLdAQLNcTusAAP9AQLNcTuVAQLFISLdAQLFAQLNAQLNmMv86OrFaTOU+PrM4OLlAQLFaTuVaTuVcTuVAQLNAQLNURuM8PLNAQLE+PrFaTOVAQLNaSuc+PrM+PrM+PrFAQL9AQLM8PLFcRutcTuUyMrNaTuVaTOVcTuU+PrNAQLFaTuVaTOVcTOU+PrFcTOU+PrNcTOVcTuVAQLNUVP9AQLFaTuVcTuVaTOdAQLNcTOU+PrM+PrM+PrNcTOVaTuVcTOVcTOVURO9aTuVcTuVcTuU+PrFcTOdcTuc+PrFaTuVaTOVaTuU8PLVaTOVAQLNaTOVcTOVaTudcTOlcTOVcTOVcTOdaTOVaTuVcTudaTOVaTOVaTOVaTuVaTOVcTOVcTOVcTOVcTOVcSuU+PrFaTOVgQP9cTOVcTOVcTuVaTuVaTOVcTuVcTOdcTOVaTuVcTOVcTudcTuVcTOVaTuVaTudcTuVaTOVaTOdaTuVaTOdaTudcTOVAQLNcTuVaTuVaTOVaTuVaTOdaTOVaTudcTOVcTOdaTOdcTuVaTOVcTOVcTudaTOc2NrdaTuVaTOVaTOdaTOVaTOVaTOVaTOVaSO1aTudaTOVaTuVcTuVaTOVcTuVCQrdeUOVaTOVaTuc+PrNaTudcTuVcTuVcTuVAQLNaTOU+PrMP0C0UAAAA2nRSTlMAtVzDw8GxcLUILDBgANEMNgQG2y77ySb1IhYK/aP5QhTxkQLpdGAKHM3dPnwyh7cWfPlG8UYc0SQCdN0mBrfpwQQMvfUSkePx+635EjbJPtf7Hu2Z/QTXLhjnClhqTmBY5e2t4+UgmelqAt3z71yHnd2jauuJ55sOsfNyYmZah3JwhyJOo6WzXCBeZFDVnY2zekybn3aJi986TmIIn4XbYo+heveLr26lTK8q7euN/W5kWE5KXoXFWmB4j4N4gZOnl1QOdlZQmX6R7w6h4feTuWwiEmhSWIOnq44TBgcAAAAJcEhZcwAACxMAAAsTAQCanBgAAA77SURBVHja7d35j1X1Gcdx05bEafsMkLA4zBCZEBgWWRwURAFBRQKyuDCsasWIjlcGNQ2K41KJC+47WqtxFCfH1tqkixorbZOuqWnSfdHn/DONFqvDzDlzl7N/3s9vZu6cS773Fcybec6Z04yRntM4AgAwAGAAwACAAQADAAYADAAYADAAYADAAIABAAMABgAMABgAMABgAMAAgBED0BZcyYlJA/Dh1zo5M2UA7vs/4NCkAbhPm8KxSQPwrjtncXDKANwHjkzm6JQBuA8t5OykAbiThOIAfPh9klAagPv++zhAaQAkoTwAklAdAEkoD8B96EzOURqA+10koTYAklAdgPu+RzhMaQAkoTwAklAdAEkoD4AklAfgflcHpyoNwIcXk4TSAEhCeQAkoTwAklAdgPvA3SShNACSUB6A+1GSUBuA9y7u4YyVAbjvO8ghSwMgCeUBuD9FEmoD8G6SUBsASSgPgCSUB+C9L5KE0gDc9xysceLKANznk4TaAEhCeQDefT9JKA2AJJQH4P4MSagNgCRUB+C+5zGSUBqA+/xFHL80APfbSEJtACShOgCSUB4APyWUB+C9h0hCaQAkoTwAklAegPsLM/gwpAF49xySUBoASSgPgCSUB0ASqgNwv+M9klAaAEkoD4AklAfgg8fW8dEoA3BfQBJqA3A/nSTUBkASqgNwv+PnJKE0AJJQHoD7cZJQGwBJqA7AfehdPidpAO4XP8onJQ3AN75EEkoDIAkLAeBVz3PmT+fjEv4bwN2P8HEBgAEAAwAGAAwAGAAwAGBEAbzOz4lPzr8fkAQQdM9p48M327U1/IYmAPcF58p//Eu394W6ANyXaP98YMf554ShNACfemKi7ue/bGcYqgNw758r+nPiG9eEIQA+nWmTBD/+i75zWQgA2dXh2rcuDEMAfDFiSbhraxgC4JS7SXWS8LP0A0Bw6pdFkvBk+gFgFACNJPw8/QAQjPGK/rmzVdIPAMGYr2mvchJ+Of0AEKjdTToy/QAQBaCqSbhlaxgCoB4AlUzCpQ/1hQCoF0DlknD16PQDQCyAaiXhstvDEACNAahQEo6dfgAIxn19JZIwKv0AENTxHaVPwuj0A0A9AMqehDHpB4Cgvm8qcRLGph8Agnq/raRJOE76AaBuAOVMwvHSDwBBA99ZuiRctSYMAZAcgJIl4UWXXhECIFkA7sfnleTjX1lX+gGgUQB+xlmlSMItK8IQAGkAKEUS1p1+AAiauUTBk7CB9ANAUwCKnYSNpB8AgiavUtgkbCz9ABA0fZ1CJmGj6QeAoIUrFS4JG08/ALQCoGhJ2ET6ASBo7WIFSsLlzaQfAIJWL1eQJFx99iVhCIAcABQjCb93SxgCIB8ABUjCVWvDEAD5Acg5CVtJPwAECV01tyRsLf0AkBSAvJKwxfQDQJDchYeuLV/6ASBI8tITsk3CBNIPAIkCyDYJk0g/AAQJXz2zJEwm/QAQJH79TJJwfULpB4AghXdIPQlXfvuqMARAYQGknYTbVoQhAIoMINUkXL4pDAFQdACpJWHC6QeA1ACkk4RJpx8AghTfKfEkTD79ABCk+l6JJmEa6QeAIOV3SywJ00k/AKQNIKkkTCn9ABCk/4YJJGFq6QeAIIu3bDEJ96aXfgDIBIBPPbG5+cO97oYwBEC5Abhff02TSbhrbRgCoPwAmkzC9dv7QgBUA0ATSZh++gEgSwCNJmEG6ZcLAGtXBdBQEmaSfvkAqD3erwqg7iTMKP3yAWA28emNqgDqS8Ks0i8vAGbnXawKoI4kzC798gNg9tyQKoBxkjDL9MsTgK07NqgKICYJd2SafrkCMJvxgiyAqCTctjMMdQCYLZqvCmDMJHxgUxhqAbDawT2qAEYl4d46frNT5QCY9SwezhHA0Vz/UeqrI/4sXwlzna/nBMCsIwCANACzhZcDQBqA1d4aAIAyALPNN3UBQBmA2Q+/CgBpAGa/3wAAaQD26q/+DABlAGbzPgGANACzl58EgDQAm/3PdwCgDMDs8EdTAaAMwGz6BABIAzB7YgEApAFY25uDAFAGYLZ7JgCkAZhNageANACrze0HgDIAs4kvbQSAMgCzjtMBIA3A7MwhAEgDsMn3dwNAGYDZrDu7AKAMwGzKNABIAzC7bz8ApAFY52vDAFAGYHbl2wCQBpDAPSQAKDcAq/3tegAoAzDb/OsuACgDaO0eEgBUAIDZb74LAGkA9uofzwCAMgCzeR8DQBqA2cvtAJAGYLV7+wGgDMBs4htTAaAMoPGHzgKgYgDMrh0CgDQAW3fsAACUAZjNOA4AaQANPHQWANUEYLX37gCAMgCznkO9AFAGYNZxFADSAOq5hwQAlQZgk48MAEAZgNms57sAoAxgnHtIAFB9AGZXbwCANADr/MUwAJQBRD90FgAiAKIeOgsAGQA2+5p3AKAMwOzwX7oAoAxgjIfOAkALgNm/LgCANABre3YQAMoAzHY/DABpAF9+6CwAJAFY7ZV+ACgDMJv49EYAKAM4eQ8JAHQBmL07BABpALbu2CsAUAZw6gAAAAAAAAAAAAAAAAAAAAAAAAAAAB0ADwPg8/m7JIDJc7pzBDBhxJ/lm3l+/GtWmSQAsxk3dQHg9mWtHWKZAST366hKC+Cc81ebMgCrxdxKWH0AfQ8tbfkESw7ArHPxsCqArVsSOL/SAzDr+EQSwIX31AwA/5uWfx1V+QBcdutFyZxdJQDY5Guu1wKw6YGkjq4aAMw2Z5yEuQLYuS25g6sKALMpE0QAXHXzDgPAWJNlEuYGoG/7+kQPrUoArPOsM6oOYO2uhM+sUgCiny5TEQA3XJf4iVUMgNnC9soCuOTsvQaAcWf23P5qAti0PI3jKi+AidFfOTG1egBWbEvnGMsLIHipJ/Jr05dUDMBVN680AIyc071/bvS/hp+7oEIArrh0fWrHWGYA7vMXRX65Ld2FoSwBtLbyU2kA7sdnRL5gxsxKAGh15afiAHzwd+siXzJpWukBtL7yU3UA7kPPRb6mlloSZgMgiZWf6gNwv/i86CRMaWEoEwCJrPwoAPCNT0f/q8CjS0oKIKGVHwkAHp+El5cQQGIrPyIAYpMwhXtI0gaw5saMjrE6AOKTMOmFoXQB7FyW2TFWCYAfOBadhAnfQ5ImgHPO32EAaAZAfBImujCUHoC+7UuzPMaKAYhNwiTvIUkNQOIrP2oAYpMwuXtIUgKQwsqPHAD3/tejkzCphaFUAKSy8iMIwL09OglnJ3MPSRoA0ln5kQQQm4Sbk1gYSh5AWis/ogBik3D6hMIBSG/lRxWA+9APor/5waFCAUhz5UcXQGwStrV4D0miANauyu8YKw0gNgnnzSwIgFt+lucxVhtAfBJOai8AgEvOXm0ASA+Ae/uk6CRsfmEoIQB9Dy3P+RirD8B9ZnQSNn0PSTIAslj5AYD7gV/GJOGS3ABks/IDgPGSsKl7SFoHkNXKDwDGT8ImFoZaBpDZyg8APk/CE9FJ2Pg9JC0CyHDlBwBfJOErMUk4LUMAma78AKC+JGxwYagFABmv/ABgZBLujrxgQwtDzQPYuqtQx6gGwA98GJ2EDSwMNQvghutqBoA8AbgPXRt90bofOtscgDxWfgDQUBLW+9DZpgBsWl68Y5QEEJuE9T10tgkAOa38AGDsJHw8+v/F9Tx0tmEAua38AKDxJKzjobMNAshx5QcAkfP9mCQcb2GoMQB5rvwAIHoGP2yLvPw4D51tBEC+Kz8AiE3CB2OSsD0RAHmv/ACg6SSMu4ekXgD5r/wAYJyZ+kZMEkYuDNUJYMWWoh8jAOKTMOoekroAXHjPSgNA8QHEJ+HY95DUAaAgKz8AaDUJx7yHZHwARVn5AUCdSfhmTBLObBhAcVZ+AFDvLIhJwlELQ/EAirTyA4AGtjyik/DUh87GASjWyg8AEkrCkQ+djQFQsJUfADSWhD+JTsIvP3Q2EkDhVn4AkGASfvHQ2QgAl926t2THCIDR83B0Ev7/obNjA0judzoDIEcAsUl48qGzYwHYua2ExwiAsZPwieg3/uyhs6MBJPs7nQGQLwD3CdOjk/DqDaMAFHflBwDNJmHM4mjn4r+OBFDglR8ApJKEfxrxX78t7SkCoOkkrMgAoOkkBIACAB98tg0AygDcL3gCANIAYpMQAAoAfOqJwwBQBuD+o3trAFAGUNkkBED98/FuAEgDqGQSAqCxJPwDAKQBVC8JAdBwEn50GADKAD5NwtkAUAbg/uQkAOQ+Rz3POQQA5b8B3L8GAAAAAAAAAAAAAAAAAAAAAAAAAAAAAAAAAAAAAAAAAAAAAAAAAAAAAAAAAAAAAAAAAAAAAAAAAAAAAAAAAAAAAAAAAAAAAAAAAAAAAAAAAAAAAAAAAAAAAAAAAAAAAAAAAAAAAAAAAAAAAAAAAAAAAAAAAAAAAAAAAAAAAAAAAAAAAAAAAAAAAAAAAAAAAAAAAAAAAAAAAAAAAAAAAAAAAAAAAAAAAAAAAAAAAAAAAAAAAAAAAAAAAAAAAAAAAAAAAAAAAABQnuk4CgBpAGZnDgFAGoBNntMNAGUAZjNuA4A0ALNF8wEgDcBqj+0BgDIAs55DvQBQBmDW8QwApAFkn4QAKFwS3t8NAGUAZrNuA4A0gEyTEADFTMKDewCgDMCs58VeACgDyCoJASCehAAodBLe3Q0AZQBms54CgDQAsynzASANIOUkBEAZknBxLwCUAaS5OAoA8SQEQHmScAAAygDMZt0JAGkAZlOmAUAagNkj+wAgDcB6Fg8DQBmAWcddAJAGkGwSAqCUSXhkAADKAD5Nwi4AKANILAkBIJ6EACjxdL4/DABlAEkkIQDEkxAA4kkIAPEkBIB4EgKgGnPfPgBoT7NJCIDKzJUBAMSnmSQEgHgSAkA8CQEgnoQAqGAS7geAeBK+NgwAkhAA0rNwCAAkIQC0k/D5LgCQhACQng/2A4AkBABJCADpJLwcANpTe2sAACQhAEhCACjPT/cDgCQEAEkIAJIQAMJJ+OMBAGjP5pu6AEASAkA7CTcAQDwJ/zMMAPEkfBsAJCEA1JMQANrzj3sBwACAAQADAAYADAAYADAAYADAAIABAAMABgAMABgAMABgAMAAgAEAAwAGAAwAGAAwBZj/AnKLdcDYOofIAAAAAElFTkSuQmCC;" parent="1" vertex="1">
          <mxGeometry x="1115" y="270" width="60" height="60" as="geometry" />
        </mxCell>
        <mxCell id="9e6MzxmHjuTmwUIpaCFs-111" style="edgeStyle=orthogonalEdgeStyle;rounded=0;orthogonalLoop=1;jettySize=auto;html=1;entryX=0;entryY=0.5;entryDx=0;entryDy=0;strokeWidth=2;shadow=1;exitX=1;exitY=0.5;exitDx=0;exitDy=0;" parent="1" source="U4WD4REOMSgNxI5-Pewu-2" target="9e6MzxmHjuTmwUIpaCFs-110" edge="1">
          <mxGeometry relative="1" as="geometry" />
        </mxCell>
        <mxCell id="9e6MzxmHjuTmwUIpaCFs-112" value="&amp;nbsp;Webhook&amp;nbsp;&lt;br&gt;Trigger" style="edgeLabel;html=1;align=center;verticalAlign=middle;resizable=0;points=[];fontSize=12;" parent="9e6MzxmHjuTmwUIpaCFs-111" vertex="1" connectable="0">
          <mxGeometry x="0.0469" y="1" relative="1" as="geometry">
            <mxPoint x="-10" y="6" as="offset" />
          </mxGeometry>
        </mxCell>
        <mxCell id="9e6MzxmHjuTmwUIpaCFs-107" value="Development Repo" style="shape=image;imageAspect=0;aspect=fixed;verticalLabelPosition=bottom;verticalAlign=top;image=data:image/svg+xml,PHN2ZyB4bWxucz0iaHR0cDovL3d3dy53My5vcmcvMjAwMC9zdmciIGhlaWdodD0iOTYuMDAwNDA0MzU3OTEwMTYiIHdpZHRoPSI5Ny42MjcyMjc3ODMyMDMxMiIgdmlld0JveD0iMCAwIDk3LjYyNzIyNzc4MzIwMzEyIDk2LjAwMDQwNDM1NzkxMDE2Ij48cGF0aCBmaWxsPSIjZmZmIiBkPSJNNDguODU0IDBDMjEuODM5IDAgMCAyMiAwIDQ5LjIxN2MwIDIxLjc1NiAxMy45OTMgNDAuMTcyIDMzLjQwNSA0Ni42OSAyLjQyNy40OSAzLjMxNi0xLjA1OSAzLjMxNi0yLjM2MiAwLTEuMTQxLS4wOC01LjA1Mi0uMDgtOS4xMjctMTMuNTkgMi45MzQtMTYuNDItNS44NjctMTYuNDItNS44NjctMi4xODQtNS43MDQtNS40Mi03LjE3LTUuNDItNy4xNy00LjQ0OC0zLjAxNS4zMjQtMy4wMTUuMzI0LTMuMDE1IDQuOTM0LjMyNiA3LjUyMyA1LjA1MiA3LjUyMyA1LjA1MiA0LjM2NyA3LjQ5NiAxMS40MDQgNS4zNzggMTQuMjM1IDQuMDc0LjQwNC0zLjE3OCAxLjY5OS01LjM3OCAzLjA3NC02LjYtMTAuODM5LTEuMTQxLTIyLjI0My01LjM3OC0yMi4yNDMtMjQuMjgzIDAtNS4zNzggMS45NC05Ljc3OCA1LjAxNC0xMy4yLS40ODUtMS4yMjItMi4xODQtNi4yNzUuNDg2LTEzLjAzOCAwIDAgNC4xMjUtMS4zMDQgMTMuNDI2IDUuMDUyYTQ2Ljk3IDQ2Ljk3IDAgMCAxIDEyLjIxNC0xLjYzYzQuMTI1IDAgOC4zMy41NzEgMTIuMjEzIDEuNjMgOS4zMDItNi4zNTYgMTMuNDI3LTUuMDUyIDEzLjQyNy01LjA1MiAyLjY3IDYuNzYzLjk3IDExLjgxNi40ODUgMTMuMDM4IDMuMTU1IDMuNDIyIDUuMDE1IDcuODIyIDUuMDE1IDEzLjIgMCAxOC45MDUtMTEuNDA0IDIzLjA2LTIyLjMyNCAyNC4yODMgMS43OCAxLjU0OCAzLjMxNiA0LjQ4MSAzLjMxNiA5LjEyNiAwIDYuNi0uMDggMTEuODk3LS4wOCAxMy41MjYgMCAxLjMwNC44OSAyLjg1MyAzLjMxNiAyLjM2NCAxOS40MTItNi41MiAzMy40MDUtMjQuOTM1IDMzLjQwNS00Ni42OTFDOTcuNzA3IDIyIDc1Ljc4OCAwIDQ4Ljg1NCAweiIgY2xpcC1ydWxlPSJldmVub2RkIiBmaWxsLXJ1bGU9ImV2ZW5vZGQiLz48L3N2Zz4=;" parent="1" vertex="1">
          <mxGeometry x="131.02" y="685.6" width="71.46" height="70" as="geometry" />
        </mxCell>
        <mxCell id="9e6MzxmHjuTmwUIpaCFs-109" style="edgeStyle=orthogonalEdgeStyle;rounded=0;orthogonalLoop=1;jettySize=auto;html=1;strokeWidth=2;shadow=1;" parent="1" source="9e6MzxmHjuTmwUIpaCFs-108" target="U4WD4REOMSgNxI5-Pewu-2" edge="1">
          <mxGeometry relative="1" as="geometry" />
        </mxCell>
        <mxCell id="9e6MzxmHjuTmwUIpaCFs-108" value="&lt;span style=&quot;background-color: light-dark(#ffffff, var(--ge-dark-color, #121212));&quot;&gt;Developer&lt;/span&gt;" style="sketch=0;outlineConnect=0;fontColor=#232F3E;gradientColor=none;fillColor=#232F3D;strokeColor=none;dashed=0;verticalLabelPosition=bottom;verticalAlign=top;align=center;html=1;fontSize=12;fontStyle=0;aspect=fixed;pointerEvents=1;shape=mxgraph.aws4.authenticated_user;" parent="1" vertex="1">
          <mxGeometry x="20" y="699.6" width="40" height="40" as="geometry" />
        </mxCell>
        <mxCell id="9e6MzxmHjuTmwUIpaCFs-114" style="edgeStyle=orthogonalEdgeStyle;rounded=0;orthogonalLoop=1;jettySize=auto;html=1;entryX=0;entryY=0.5;entryDx=0;entryDy=0;strokeWidth=2;shadow=1;" parent="1" source="9e6MzxmHjuTmwUIpaCFs-110" target="9e6MzxmHjuTmwUIpaCFs-113" edge="1">
          <mxGeometry relative="1" as="geometry" />
        </mxCell>
        <mxCell id="9e6MzxmHjuTmwUIpaCFs-119" value="&amp;nbsp;Image&amp;nbsp;&lt;br&gt;Build" style="edgeLabel;html=1;align=center;verticalAlign=middle;resizable=0;points=[];fontSize=12;" parent="9e6MzxmHjuTmwUIpaCFs-114" vertex="1" connectable="0">
          <mxGeometry x="0.0058" y="2" relative="1" as="geometry">
            <mxPoint x="-10" y="8" as="offset" />
          </mxGeometry>
        </mxCell>
        <mxCell id="9e6MzxmHjuTmwUIpaCFs-110" value="" style="shape=image;imageAspect=0;aspect=fixed;verticalLabelPosition=bottom;verticalAlign=top;image=data:image/svg+xml,PHN2ZyB4bWxucz0iaHR0cDovL3d3dy53My5vcmcvMjAwMC9zdmciIHZpZXdCb3g9IjE3LjcxNDAwMDcwMTkwNDI5NyAtMC4wMDAzNzgxMzE4NjY0NTUwNzgxIDkyLjU3Mzk4OTg2ODE2NDA2IDEyOC4wMDAzMDUxNzU3ODEyNSIgd2lkdGg9IjkyLjU3Mzk4OTg2ODE2NDA2IiBoZWlnaHQ9IjEyOC4wMDAzMDUxNzU3ODEyNSI+PHBhdGggZD0iTTEwOC44OTMgNjEuNjhjMCAyNS4zNi0yMC4wOTkgNDUuOTE4LTQ0Ljg5MiA0NS45MTgtMjQuNzk0IDAtNDQuODkzLTIwLjU1OC00NC44OTMtNDUuOTE4czIwLjEtNDUuOTIgNDQuODkzLTQ1LjkyIDQ0Ljg5MiAyMC41NiA0NC44OTIgNDUuOTIiIGZpbGw9IiNkMzM4MzMiLz48cGF0aCBkPSJNMjAuOTM4IDczLjA1MlMxNy42ODggMjUuMTY3IDYxLjgxIDIzLjhsLTMuMDc4LTUuMTMtMjMuOTQzIDguMDM3LTYuODQgNy44NjctNS45ODYgMTEuNDU5LTMuNDIgMTMuMzM5IDEuMDI1IDguODkzIiBmaWxsPSIjZWYzZDNhIi8+PHBhdGggZD0iTTMzLjI1MyAzMC4zNTVjLTcuODc2IDguMDYtMTIuNzUgMTkuMTg2LTEyLjc1IDMxLjQ5NiAwIDEyLjMwNyA0Ljg3NCAyMy40MzYgMTIuNzUgMzEuNDk0IDcuODggOC4wNTcgMTguNzQgMTMuMDMgMzAuNzQ3IDEzLjAzIDEyLjAwNyAwIDIyLjg2Ny00Ljk3MyAzMC43NDctMTMuMDMgNy44NzYtOC4wNTggMTIuNzUxLTE5LjE4NyAxMi43NTEtMzEuNDk0IDAtMTIuMzEtNC44NzUtMjMuNDM3LTEyLjc1MS0zMS40OTZDODYuODY3IDIyLjMgNzYuMDA3IDE3LjMyNyA2NCAxNy4zMjZjLTEyLjAwNi4wMDEtMjIuODY3IDQuOTczLTMwLjc0NyAxMy4wM3pNMzEuMjYgOTUuMjk0Yy04LjM3LTguNTYxLTEzLjU0Ni0yMC4zOTItMTMuNTQ2LTMzLjQ0MyAwLTEzLjA1MyA1LjE3Ni0yNC44ODMgMTMuNTQ2LTMzLjQ0NCA4LjM3LTguNTYzIDE5Ljk1NC0xMy44NyAzMi43NC0xMy44NjkgMTIuNzg4LS4wMDIgMjQuMzc0IDUuMzA2IDMyLjc0MSAxMy44NjkgOC4zNzIgOC41NjEgMTMuNTQ4IDIwLjM5MiAxMy41NDcgMzMuNDQ0IDAgMTMuMDUtNS4xNzUgMjQuODgyLTEzLjU0NyAzMy40NDMtOC4zNjcgOC41NjItMTkuOTUzIDEzLjg3LTMyLjc0IDEzLjg3LTEyLjc4NyAwLTI0LjM3Mi01LjMwOC0zMi43NC0xMy44NyIgZmlsbD0iIzIzMWYyMCIvPjxwYXRoIGQ9Im04Mi44OTggNjEuOTM0LTYuODQxIDEuMDI2LTkuMjM1IDEuMDI2LTUuOTg2LjE3MS01LjgxNS0uMTctNC40NDYtMS4zNjktMy45MzQtNC4yNzUtMy4wNzgtOC43MjItLjY4NC0xLjg4MS00LjEwNS0xLjM2OC0yLjM5NC0zLjkzNC0xLjcxLTUuNjQ0IDEuODgxLTQuOTYgNC40NDYtMS41MzggMy41OTIgMS43MSAxLjcxIDMuNzYyIDIuMDUzLS4zNDIuNjgzLS44NTUtLjY4My0zLjkzMy0uMTcyLTQuOTYgMS4wMjYtNi44NC0uMDQtMy45MDggMy4xMTktNC45ODUgNS40NzItMy45MzQgOS41NzgtNC4xMDQgMTAuNjAzIDEuNTM5IDkuMjM1IDYuNjcgNC4yNzYgNi44NCAyLjczNiA0Ljk2LjY4NCAxMi4zMTMtMi4wNTMgMTAuNjA0LTMuNzYyIDkuNDA1LTMuNTkxIDQuOTYiIGZpbGw9IiNmMGQ2YjciLz48cGF0aCBkPSJtODguMDI3IDU2Ljk3NS00LjEwMyA0LjEwNXYxNS45MDRsLTMuNTggMTQuNjYtMS43MjEuMDQ3IDEuMzY3IDE2LjQxOCA2LjQ5OC0uODU1TDg0Ljk1IDkxLjUybC0yLjkwMi4wNzkgNy44NjMtLjQyMnMzLjkzMi05LjkxOSAzLjkzMi0xMC40MzJjMC0uNTEzIDMuNDIyLTE0LjM2NSAzLjQyMi0xNC4zNjVsLTcuNjk4LTguMDM3LTEuNTM5LTEuMzd6bS00MS4yMTUgMi41NjQtNC4yNzUgMS43MTEtMTMuNjgyIDkuNDA2Ljg1NiAyLjczNyAzLjkzNCAxMS42MjggMS43MDkgMTkuMzI3IDEuMTk3IDIuMDUgMTcuMTAxIDUuODE3IDEuMDI4LTEuMi0yLjA1My0xNC4zNjV2LTQuMTAzbDI0LjQ1NS0xLjAyNyAxLjg4LTEuMDI2LTE0Ljg3Ni03LjAxMiAyLjczNi01LjMtMy45MzMgMS4zNjctMS41NC0xLjg4MS0yLjA1Mi04Ljg5My0xLjcxMS0uNTEzLTMuNzYyLTEuMTk4LTMuMjUtMi45MDYtMy43NjEtNC42MTl6IiBmaWxsPSIjMzM1MDYxIi8+PHBhdGggZD0ibTM2LjU1MSAzMS44MzUgNC40NDYtMS41NCAzLjU5MiAxLjcxMSAxLjcxIDMuNzYyIDIuMDUzLS4zNDIuNTEzLTIuMDUyLTEuMDI2LTMuOTMzIDEuMDI2LTkuNDA3LS44NTYtNS4xMyAzLjA3OS0zLjU5MiA2LjY3LTUuMzAxLTEuODgyLTIuNTY1LTkuNDA2IDQuNjE3LTMuOTMzIDMuMDc5LTIuMjI0IDQuNzg4LTMuNDIgNC42MTctMS4wMjYgNS40NzMuNjg0IDUuODE1IiBmaWxsPSIjNmQ2YjZkIi8+PHBhdGggZD0iTTU5LjQ0NSA0LjAyMWMtMS4xNzItLjAxMi0yLjU0My4xMDgtMi41NDMuMTA4TDQ1Ljc4NyA4LjQwNmwtNC4yNzcgNC4yNzYtMS44ODEgMy40MiAzLjkzNC0uMzQyczIuNTY1LTYuMzI4IDEyLjgyNi05LjQwNmM2LjQxMy0xLjkyNCA1LjAxLTIuMzEyIDMuMDU2LTIuMzMzek00OC4wMSAxNC45MDRsLTkuNDA2IDIuMjIzLTIuNzM3IDguODkzLjY4NCA1LjgxNCAxLjg4LTEuMTk1cy0zLjU5MS0xMS45NzQgMTAuMDktMTMuNjg0bC0uNTExLTIuMDV6IiBmaWxsPSIjZGNkOWQ4Ii8+PHBhdGggZD0iTTY5Ljk4Ni40NzVhMTEuMzE4IDExLjMxOCAwIDAgMC0zLjg1Ljc0OGMtMTAuMjYgMy45MzMtMTcuNzg1IDExLjExNS0xNy42MTUgMTUuNzMyLjI5MiA3Ljg2NC4xNzIgNy44Ny4xNzIgNy44N1M1MS42MDEgOS43NzQgNjYuMzEgNi44NjZjMTIuMTA4LTIuMzkzIDE4LjQ2OC41MTIgMjAuODYzIDMuMjQ4IDAgMC04LjI1LTkuODItMTcuMTg2LTkuNjR6bTE4LjMyOCAxMS4zNWMtLjU0NS0uMDAzLTQuOTEzLjEwOC01LjA3NCA0LjI3NyAwIDAgMCAuNjgzLjM0MiAxLjM2NyAwIDAgMy45MzQtNC40NDcgNi4zMjgtMi4wNTNsLTEuNTM5LTMuNTlzLS4wMi0uMDAyLS4wNTctLjAwMnptLTI1LjE4NSAyLjAxYy0uODQuMDItMS44NzYuMzcxLTMuMTQ5IDEuMjQtMy43NjIgMi41NjUtMy40MiA2LjE1Ny0yLjczNiA2Ljg0MS42ODQuNjg0LjQ5OSAyLjA2IDEuMDIgMS4xMTUuNTItLjk0NS4zNDktNC4wMjIgMi4yMy00Ljg3NyAxLjg4MS0uODU1IDQuOTY2LTEuODEyIDYuMTYtLjIyMiAwIDAtLjUyMi00LjE2Ni0zLjUyNS00LjA5NnptMjYuNDM3IDEwLjQ3NnMtMi44MTguNTk0LTMuMDc4IDMuMDc4Yy0uMjYgMi40ODMgMy4wNzkuNTEyIDMuNTkyLjM0MWwtLjUxNC0zLjQyem0tMjAuNjkzLjE3MXMtMy43NjIuNTEzLTMuNzYyIDIuOTA3IDQuMjc2IDIuMjIzIDUuNDczIDEuMTk3bC0xLjcxMS00LjEwNHpNMzguNDMyIDMwLjY0IDM0LjUgMzQuNzQybC42ODQgNS4xMzEgMi4wNSA1LjMgMi4yMjUuNjg2Yy0zLjI1LTMuOTMzLTEuNzExLTYuNjcxLTEuMDI3LTEwLjQzMy42ODMtMy43NjMgNy4xODMuMTcyIDcuMTgzLjE3MmwtLjE3Mi0yLjU2Ny0yLjU2NC0yLjA1LTQuNDQ3LS4zNDJ6bTM4LjYwOSA3Ljg0N2MtMS4xMjYtLjA1LTEuNTU2IDMuNjM1LTEuNjQ4IDQuNTg2LjMxLS45MiAzLjE3MS0yLjc3IDMuMTcxLTIuNzdzMC0xLjM5Ni0xLjM5Ni0xLjc5NGEuNTQ5LjU0OSAwIDAgMC0uMTI3LS4wMjJ6bS0xLjY0OCA0LjU4NmEuMzk0LjM5NCAwIDAgMC0uMDIuMjIxcy4wMDYtLjA4LjAyLS4yMnptLTI5LjI0OCAxLjMwMS0yLjI0IDIuMTcuNTEzIDcuNTI1IDUuNDczIDguNTUxczYuMTQzIDEuMzg2IDUuNDcyLjg1NmMtNy4zNTMtNS44MTUtNy44NjYtMTYuNTktOC4wMzctMTcuNzg4LS4xNy0xLjE5Ni0xLjE4MS0xLjMxNC0xLjE4MS0xLjMxNHptMTkuMjQ0IDIuNTQ5Yy0uNjc1LjAxLTEuMTIyLjIyOC0xLjI0OC4zOTYtLjQyNy41Ny40NTcgMy42NzIuNDU3IDMuNjcybC44NTUuMTcyYy0uMTctMy40MjEgMS44ODEtMy43NjQgMS44ODEtMy43NjQtLjc1OC0uMzY0LTEuNDItLjQ4NC0xLjk0NS0uNDc2eiIgZmlsbD0iI2Y3ZTRjZCIvPjxwYXRoIGQ9Im00NS42MTUgNTkuMzctMTYuNzYgMTEuMjg2IDEuODgxIDUuMzAzIDQuNDQ4IDE5LjE1Mi4xNyAxMC4wOTIgMi4zOTQuODU0YzMuNDItOC4yMS0zLjI0OC0zNC43MTctMy4yNDgtMzQuNzE3bDE2LjA3NC03LjE4Mi00Ljk1OS00Ljc4OXptNi42MTQgMTkuNDQ4LS40NTggMS4wNzNzLS4zNDEgMy4wNzgtLjM0MSAzLjkzM2MwIC44NTYuMzQxIDguMDQuMzQxIDguMDRoMi43MzdWODEuNjAxbC0yLjI4LTIuNzg0em0uMDU2IDE0LjU4NC03LjY5NS4zNDIgMi4yMjIgMS41NCA1LjQ3My44NTV2LTIuNzM3em0zNS43NDItMzYuNDI3LTMuMjQ4IDMuNTkxTDk2Ljc1IDY5LjQ2bC4zNDItNC4xMDQtOS4wNjUtOC4zOHptLTMuNDIgMzMuNTItNS45ODQgMS4xOTYuODU0IDQuNzljMi4yMjMgMS4wMjYgNS45ODYtMS43MTEgNS45ODYtMS43MTFsLS44NTYtNC4yNzZ6IiBmaWxsPSIjNDk3MjhiIi8+PHBhdGggZD0iTTUwLjU3NCA2Mi42MnYxLjUzOGwyLjE3NCAyLjM5NSA2Ljg0IDMuMDc4LjE3Mi01LjEyOS00LjczOS0uNTE2LTQuNDQ3LTEuMzY3em01MC4wNTkgMjQuMjg0LTUuNDczIDEuNzExLTUuMjUgMi41NjMtMi43ODktLjUxLTIuMTcyLjg1MyAxLjgzMiAxNC4zNjggNi42NjgtMS44ODMgMTIuNjU2LS42ODQgMS44ODEtNS44MTQtMy40Mi0xMC4wOS0zLjkzMy0uNTE0em0tMjIuMDEgNC43ODctOS45Ny4wMDItMTYuMDI2Ljg1NC4yOTEgNy44NjkgMS43NjIgMTAuNiAzLjU0IDE0LjM2OSA3Ljg2NiAxLjcwOSAxMi45OTgtMS4wMjYuMTctMi41NjYtMS41NC0xMy44NTIuOTA5LTE3Ljk1OXptMS4zMTctMS4zNjYtMy43NjMtOS41NzctMy45MzQtNS42NDRzLjg1NS0yLjM5NCAyLjA1My0yLjM5NGgzLjkzM2wzLjc2MiAxLjM2OC0uMzQxIDYuMzI4LTEuNzEgOS45MiIgZmlsbD0iI2ZmZiIvPjxwYXRoIGQ9Im01Mi4xMTUgNjUuMDE0LS41MTMuNjg1IDIuOTA4IDIuMDUxIDQuNzg3IDEuMDI1LS4xNy0yLjA1Yy0xLjcxLjUxMy03LjAxMi0xLjcxMS03LjAxMi0xLjcxMXptMjMuNzcgNy4zNTMtMy45MzIuNTEyIDYuNjcgMTUuNzM0IDEuMzY3LjE3Mi42ODQtMS43MXMtNC43OS05LjIzNi00Ljc5LTEwLjYwNGMwIDAgLjg1Ni0yLjA1MiAyLjA1My0xLjU0IDEuMTk4LjUxNCAzLjc2NCAxLjg4MiAzLjc2NCAxLjg4MnYtMy4yNDlsLTUuODE2LTEuMTk3em0xNi4yNDggMTcuOTU3LTIuMjIzLjg1NCAxLjg4MSA5LjQwNmMtLjY4NC0uMTcxLTUuMTMgMS44ODMtNS4xMyAxLjg4M2wuNTEgMi43MzYgMS44ODQtLjY4NSA1Ljk4NC0uODU0IDEuNzExIDIuMjIzIDUuMTMuMTcgMy4wNzktLjY4NCAyLjczNi00LjEwMy0uMTcyLTMuMDgtMS44OC01LjQ3M2MuNTEzIDQuMTA0LTEuNTQgOC4wMzktMS41NCA4LjAzOS0uODU1IDAtMTAuNDMxLS41MTQtMTAuNDMxLS41MTQgMC0xLjAyNi0xLjU0LTkuOTE4LTEuNTQtOS45MTh6bS0xMy4xNy4xNy0yLjU2NSAxLjAyN3MtLjg1NCAxNy43ODcgMS43MTEgMzAuNDQyYzAgMC01LjEzIDMuMjQ5LTEyLjY1NiA0LjEwM2wxNC4zNjUtLjUxMyAxLjcxMS0xLjAyNi0yLjA1Mi0yOC4wNDctLjUxNC01Ljk4NnptNC40NyAxOC4yOTdjLS43MzYuMDA0LTEuODMuNTI2LTIuNjAzLjQ3NS0uMTEzIDIuNzAxLjI2NiA3LjAzMy4zOTMgOS44NjcgMS43OTYuMDAyIDIuNTY1LS4zOTIgMy45MDYtLjg0NC4xNTEtMy4zMzUtMS4wNTctNi40MjItMS40MDQtOS40NjdhMS4xMDUgMS4xMDUgMCAwIDAtLjI5MS0uMDMxeiIgZmlsbD0iI2RjZDlkOCIvPjxwYXRoIGQ9Ik04NC43NzcgNjMuODE4Yy0yLjE5Mi4xMDItNS4xNDggMi44OTctNi41MjUgMy4zODcuMTc4LjUxMi40Ny45MTcuNDkyIDEuNTcuOTY1LS4yMzggMi4xNC0uMDc1IDIuOTc3LjMzNi0uOTY4LjEwOC0yLjAzOC4xMDItMi42NzguNTYzLS4yMzUuNjc3LjA1NSAxLjYtLjEwMiAyLjU0IDIuMjk2LjY0OCA0LjkxOS45OTQgNy44MiAxLjA3OS41NjYtLjczMy43NTgtMi4xMzMuNjktMy41MTgtLjA4LTEuNjctLjUxOS01LjEwNC0xLjU1LTUuNzA1LS4zNC0uMTk3LS43MTgtLjI3LTEuMTI0LS4yNTJ6bS0yMi41MzUuNzQ4Yy0yLjMyNC4wNS0yLjA4MiA0LjEwOC0xLjk2OSA2LjU5Mi4wOTUgMi4wOTggMS4xODggNC4zMTggMS42NiA1LjcxMy4yMjQuNjUuMjc0IDEuMzQyLjgzIDEuNDcuOTg0LjIzIDQuMjMtMS4wNjcgNS4xNTUtMS41NzEgMS45NTUtMS4wNjYgMy40NzMtMi43NiA1LjEzMy0zLjg5N2wuMDYyLTEuNjU4Yy0uOTk4LS40OTgtMi4xNS0uODUyLTMuNjE3LS45MTYuOTk1LS41IDIuNDU3LS40OTMgMy4zNjMtMS4wODhsLjAyNi0uNjYyYy0xLjY1NC0uMTI3LTIuMjg1LS44NjQtMy4zNzUtMS40NjEtMS43ODQtLjk3NC00LjQ2NC0yLjAzNy02Ljc2OC0yLjQ3N2EyLjQgMi40IDAgMCAwLS41LS4wNDV6bTEzLjQzIDMuNDU3Yy0uNDQyLjAwNC0uOTY5LjE3MS0xLjU3LjU3My0uMTE0IDEuMjU5LjE4IDEuNjcuNDMzIDMuMTE1IDMuNDkzIDEuMDkzIDMuNTI1LTMuNzA0IDEuMTM3LTMuNjg4eiIgZmlsbD0iI2QzMzgzMyIvPjxwYXRoIGQ9Im04NC41NTcgNjIuNjIxLTYuNDk4IDMuNzYyLS4zNDQgMS44OHYzLjc2MmwyLjM5NC44NTZzLTEuMTk3LTEuNzEtLjM0MS0yLjIyM2MuODU1LS41MTMgMS43MTEgMCAyLjIyNC0uODU1LjUxMy0uODU2IDAtMS4zNjkuMTctMi4zOTUuMTcxLTEuMDI2IDEuMDI2LTEuMTk2IDEuODgxLTEuMzY3Ljg1NS0uMTcgMy4yNS0uNTEzIDMuNTkyLjM0MmwtMS4wMjYtMy4wNzh6bS0yMS41MzYgMS4wM2MtLjg0Ny0uMDE4LTEuNjE5LjEyMi0yLjE4NS41MDctNC4wMjEgMi43MzUtLjc4IDkuMDU2IDEuMTkgMTIuNzc0YTU1MS41NiA1NTEuNTYgMCAwIDAtLjUzOC02LjQwOWMtLjM2Mi0zLjk4Ljk1Ny0zLjI4NSA0LjQwOC0zLjI4NS41MjggMCAzLjI0NS42MjggMy40NCAxLjAyNi45MzMgMS45MDUtMS41NiAxLjQ4MSAxLjA3NCAyLjkxOCAyLjIyNCAxLjIxMiA2LjE1Mi0uNzM3IDUuMjU0LTMuNDMyLS41MDMtLjYtMi42Mi0uMTg3LTMuMzc5LS41OGwtNC4wMDgtMi4wNzhjLTEuMTY4LS42MDctMy4zOTItMS40MDMtNS4yNTYtMS40NDJabS0uOTk2IDEzLjI4Yy4wNDIuNTMyLjA4NiAxLjA2My4xMjcgMS41OTRsLjYxMi0uMTgzYy0uMjA0LS40MDUtLjQ2LS44ODMtLjczOS0xLjQxeiIgZmlsbD0iI2VmM2QzYSIvPjxwYXRoIGQ9Ik02Ny41NjUuMDA2Yy0zLjU5LjA2OC03LjEwMS42NjUtMTAuMDI3IDEuNzQyLTIuMTc1LjgtNC4yODIgMS41MTYtNi4xOTIgMi42MzgtNS4xMTEgMy0xMC41MzcgNS4wMDgtMTIuMDUyIDExLjA0Ny0zLjczNCAxLjY3Mi00Ljg2IDYuNDUxLTQuNjcyIDExLjk5Ny4wMzYgMS4wODEuNjIzIDIuNDMyLjQyIDMuNDQ5LS4xMDQuNTE2LS44MDQgMS4xNzctLjk0NCAxLjUxMy0xLjc5IDQuMjY3LS4zNTUgOS44NzYgMS43MTMgMTIuOTA5IDEuMjUgMS44MzIgMy4zMiAzLjQ1NyA2LjA1IDMuODg4LjEwOSAxLjYzNS41MDIgMy4wNDIgMS4yNTcgNC42OTkuNDc4IDEuMDQ4IDIuMjYzIDIuOTMyIDEuNjA2IDQuMjY5LS4zMy42NzQtMy4yMzcgMi4xMzctNC4yMDEgMi43MTYtMy4yNTUgMS45NTItNS42MTQgMy4xNDktOC42MTkgNS4zMTItMS45NDQgMS40LTQuOTg1IDEuNTgtNC41MDUgNC44MDguMzIzIDIuMTc4IDEuNTYzIDQuODc4IDIuMjcyIDcuMDYyLjc2OCAyLjM1NyAxLjg2OCA0LjUxNiAyLjUgNi45NjIgMS40MDUgNS40NTEgMS42OTggMTAuNTg3IDIuMDQgMTUuOTExLjEzNCAyLjA4NS0uMDg4IDQuMjkxLjQ1MyA1LjQ0Mi41NTggMS4xOSAyLjYyNiAxLjU3IDQuMTIgMi4yNjQgNC4zMTUgMS45OTUgOC44OTMgNS4wNDIgMTQuNTUyIDQuNDM3IDEuMzQ5IDQuNTM2IDIuNjI0IDkuMzY3IDQuMjQzIDEzLjM0IDUuODAzIDIuMDg2IDE0Ljk2NCAxLjc2IDIwLjk5NyAxLjAzNSAxLjgzNC0uMjIyIDMuNzY5LTEuMTI3IDQuMi0yLjcxNy0uMTI5LS45OC0uMjcyLTEuOTUtLjIxLTMuMTA5IDEuODg2LS4zOSA0LjQ1My0uNzEyIDQuODY4LTIuOC41ODItMi45MjgtMS44NDktNy4xMjMtMS4wMzgtMTAuMzM2IDEuMDkyLS4zNTQgMi4yNTgtLjYzMSAyLjA4NC0yLjM1NSAxLjg0LS45NTggNC4wMjMtMS4xNzIgNi4zNTMtMS4wODIuMy41OC43MjcgMS4xMzggMS4xMTEgMS40NTcgMy4yNjQuNjU2IDYuNDI1LjcxIDkuMTM1LS4xNzQgMy4wNjctMS4wMDIgNC41My03LjI3NSAzLjgyOS0xMC4yNi0uNDk4LTIuMTE1LTEuNjI0LTUuNTgtMi41ODQtNy42MjgtMi42MDEtNS41Ni0xMC4zNTMtMi4wNy0xNC41MDItLjAwOCAyLjAxMy01LjI5NSAzLjc0NC0xMC43ODUgNS41Mi0xNi43MjUuNTMtMS43OCAxLjU3OC00LjMwMyAxLjM0My02LjE0Ny0uMjItMS43MzQtMi45MjQtMy41NTYtNC4zNDctNC45My0uNzkxLS43NjItNC40NzktMy41NjItNC42OTMtNC42MS0uMjA3LTEuMDE0IDEuNTA0LTMuMzExIDIuMDU0LTQuNDYuNzktMS42NDQgMS4zNTYtMy42NTYgMS43NDUtNS4wMjUgMi45LTEwLjE5NiAzLjE5NS0yNC4yMDQtLjk1MS0zMi41ODYtMS41Ny0zLjE3NS01Ljk2LTcuNTYtOC43MDUtOS42MzdDNzkuNzQgMS4yNTQgNzMuNTQ2LS4xMDYgNjcuNTY1LjAwNlptLjQ3OCAyLjg0QzcyLjg5IDIuNzk5IDc4LjI4IDQuNTA5IDgxLjkzIDYuNTY4YzMuMDUgMS43MiA1LjMgNS4wNDggNy40NDYgNy44MTctMy4wMDktLjg5My01LjU3LjY0Mi01LjEwMyAzLjEyNCAyLjUxOS0yLjMwOSA2LjgyMi0uMDI1IDguMDk1IDIuNTI4IDEuMjE3IDIuNDQgMS4yMDkgNi4wNTcgMS4zOTYgOS42ODUuNDUzIDguNzk4LTEuNjEgMTcuODc1LTYuMDMxIDI0LjIzNC0xLjE4MiAxLjY5OC0yLjE3NCAzLjU1NC0zLjgzNiA0LjcyMy00LjAwNiAyLjgxMy0xMC4wOTUgNS4zNjMtMTUuMzA5IDMuNjE0LTYuODktMi4zMTItMTAuMDItNi45MDMtMTMuODEtMTIuMTYuMTAzIDIuODg4IDIuMTM0IDUuMjU4IDQuMTQgNy40NjcgMS43NDUgMS45MjUgMy44NTEgNC4xIDYuMTE3IDQuOTk4LTEuODktLjQ0NC00Ljc5Mi0uNTgzLTUuNTggMS4xMTQtNC40MS0uMjkzLTguNTA4LS43NDQtMTAuNTk0LTMuNzMzLTEuNjQ0LTIuMzU2LTMuMzE0LTYuMzYzLTQuMDYzLTkuNDU4LS4xNTMtLjYzNi0uNDE1LTEuOTktLjM1MS0yLjMzNy4yNDYtMS4zNDMgMi42MzgtMS45MzMgMS42OTctMy44MS0xLjczNi0uMDE2LTIuMTI3IDEuNTgtMy43MiAxLjczOC00LjEyNS40MDgtNy4wMzUtNS40NjctNi44NDgtOS4wMTIuMTU5LTMuMDE0IDIuNzA3LTUuODk4IDYuMTkyLTUuNTE3IDIuNDYzLjI3IDMuMyAyLjk1OCAzLjc3OCA1LjM1IDEuNDIuMDc2IDMuNDcxLS4wNjEgNC4xNDMtMS4xNjktLjA5Ny0yLjcwMy0xLjM1Mi00Ljg3MS0xLjI2Ni03LjM1NS4xNjItNC42NjggMi43MDUtOC44OC43NDMtMTMuNDc4IDIuMS00Ljc2NCA4LjI2MS04LjUyNCAxMi44MTgtMTAuNzk3IDEuNzY1LS44OCAzLjg1Ni0xLjI2NCA2LjA2LTEuMjg2ek01NS41MDUgNS4xOTJjLjE5OC4wMzIuMzguMTg2LjU1Ni4zNzQtLjAzLjgxMS0uODMuNzk0LTEuMzcgMS4wNTQtLjg0IDEuMDMzLTIuMDY4IDEuNTE2LTMuMDkgMi42NDgtMS4wNDkgMS4xNi0yLjIyMiA0LjI3Ni0zLjYxMiA0LjYyLS42OTcuMTc0LTEuNDkzLS4xMi0yLjEtLjA4LTEuNjA1LjEwMS0yLjczNS45MjMtNC4zNjMgMS4xNTkgMi4xMDItNC41OTUgOC42NTktOC4zMTMgMTMuNzc0LTkuNzYyYS40NjguNDY4IDAgMCAxIC4yMDUtLjAxM3ptOC43NCA5Ljk3M2MtMi42MzcuMDAzLTUuNjQgMi44MjItNi40MjMgNC45NzMtLjMxOC44NzQtLjgyIDIuNTkuNDQxIDIuODk1IDEuNDEzLTMuMTQ5IDMuNzI5LTYuMTg1IDguMzktNS4xLjg5NS0xLjQ3MS0uNzA1LTIuNTUyLTEuODg3LTIuNzNhMy40NzcgMy40NzcgMCAwIDAtLjUyMi0uMDM4em0tMTYuNjU2LjQ4YzEuODAyIDQuNTg2LTEuMjkzIDEwLjAzNi0uMTQgMTUuMDUxLjM1MyAxLjUzNiAxLjU3NCAzLjkyLS4zNzYgMy45NzIuMDUxLTQuMzctNS4zNy03LjE0My05LjQ1NS00LjU3NC0uMjczLTMuMzE0LS43NDYtNy45NzMgMS41MTQtMTAuNDU5IDIuMDg1LTIuMjk2IDQuOTU5LTMuNzI1IDguNDU3LTMuOTl6bTQxLjc3NiA3LjU5N2MtLjE0OSAyLjUxNy43ODYgNC4wMzIgMS40MzUgNS44MTItMS4xMjIuNzA2LTMuMzA1LjI2Ni00LjU3LjgxOS0uMDkgMy43MjMgNS43NiAxLjg4OCA2LjY1LS4xODUtMS4zMy0xLjkzMi0yLjI0MS00LjI1LTMuMjk1LTYuNDM3bC0uMjItLjAxem0tMjAuMzI1LjA1N2MtLjY5MiAxLjk2NCAxLjE4OCA1LjI5OCAyLjI0MiA2Ljk4NC0xLjM3MyAxLjMzMy0zLjg0Mi4yMjYtNS42NzkuMTQtMS43NTMgMi43NjkgMy40MjMgMy4yOSA1LjY0NCAyLjYzNC42MDgtLjE3OSAxLjY2LTEuMDkgMS44MDUtMS41LjYxNy0xLjczMy0uNjI3LTIuNDkzLTEuMjY3LTMuMTE3LTEuNDItMS4zODQtMS43NDYtMy4zMS0yLjc0NS01LjE0MXptMTAuNTQ5IDEuODFjLS4xMzQtLjAxOC0uMjk1LjAzLS40ODguMTctLjEyNSA0LjYxNiAzLjMwNSA4LjQzNyA1Ljg2MyAxMS41MiAxLjI1IDEuNTA1IDIuNzU2IDIuMzY1IDEuMzY5IDQuNzAzLTIuMjM2Ljg1LTUuODU1IDMuMjg1LTguOTY0IDIuNzUzLTEuNjUtLjI4Mi0xLjI3OC0yLjE1NS0xLjg3LTMuMTczLTEuMTM4IDEuNDk3LS42OTIgMy43NjIuNDggNC43OCA1LjQ3OS41NDIgOS4yMDgtMS43OTQgMTIuNTUyLTMuOTQzLS4xMzMtLjg0MiAxLjAxMi0yLjM2LjY5NC0zLjYyNi0uMTEtLjQzNi0xLjEwMi0xLjA2OC0xLjcwNC0xLjcyNy0yLjQ1My0yLjY3NS01LjgxNC02LjY3Mi03LjE1LTkuNzk4LS4xMi0uMjgtLjIwMS0xLjU4My0uNzgyLTEuNjZ6bS0zOC45OCA4LjYzNWMtMS4yNjctLjAyLTIuNDE1LjgxNS0yLjY4NiAyLjc4My41NjItLjM2OCAxLjAxNS0xLjQxNSAyLjAyOC0uOTE3LS44OSAxLjczNy0uNjc2IDUuMTIuNTM1IDYuMjItLjAwNy0yLjA2Mi0uMzI4LTUuNTg3IDEuNDMtNS40OCAxLjIzMS4wNzQgMS40OCAyLjcxIDIuNTI4IDMuMzA4LjcyMy0zLjQ3OC0xLjcyMi01Ljg4Mi0zLjgzNS01LjkxNHptNTAuMDUxIDEwLjM2Yy0yLjY3MyAxLjIyLTQuODMgMi45OTctOC4zMjIgMy4zMzItLjE2OS41NzctLjA5NyAyLjAzMy0uMDA0IDIuOTkgNC41NjctLjA5NSA2Ljc3LTMuMzU4IDguMzI2LTYuMzIxem0tMjEuODg0IDEuOTIxYzEuMzM1IDMuNTczIDcuMzUzIDQuODMzIDEyLjQ0MyA0LjU3OS0uMDA4LTEuMDU4LS4wMDMtMi4xMy0uMjE1LTIuOTk4LTMuOTYuMTE2LTkuMzE1LS4wNDktMTIuMjI4LTEuNTh6bS0uNTUzIDIuODU4Yy0yLjU3My4wMDMtLjQwMyAxLjQzNC4wMzMgMS45OTQuOTAyIDEuMTYgMS45NiAzLjEzOSAzLjYwOCA0LjAxNSAyLjU5OCAxLjM4IDcuNzU4LjgwMSA5LjYzLjA0LjY5Mi0uMjggMS4yNS0xLjA1NyAxLjUwNy0xLjcxMy01Ljg0LjE0LTEyLjc2My43MjItMTQuNzc4LTQuMzM2em0xOS40MzYgOS44M2MyIDEuNjExIDMuMjA4IDMuMTI3IDUuMTI2IDQuODUgMS4wNC45MzMgMy4wODggMi4wNTEgMy4yOTUgMy41Ni4xMTUuODQyLS40MDEgMi45MDUtLjU5MSAzLjg1Mi0uODQgNC4xNTQtMi43MyA5LjY0Mi00LjUzIDEzLjk5NS0uNjU0IDEuNTgyLTEuMjggMy41Ni0yLjE0MyAzLjkwMi0yLjM2NC45MzYtNS4yMzMtLjA5MS03LjI0MiAxLjE2IDIuNy00LjY4NSA1LjY0LTkuMTExIDguMjg2LTEzLjg1Mi0uNDAzLS45NC0xLjM5MS0xLjM0MS0xLjY3OC0yLjM4OCAxLjg1OC0zLjUwOSAxLjAwNC0xNC40MDMtMy43MzgtMTIuMTAzLjY2My0uOTc0IDIuNDA0LTEuNzc4IDMuMjE1LTIuOTc2em0tNDEuNzI0IDIuNDhjLjQzMS0uMTcgMy41NzcgMy45MjMgNC4wNDIgNC4yNTUgMi41NSAxLjgxIDUuNzE2IDMuMjQgOC42NzcgNC42NTMuMTgxIDEuMzU5LjYgMy4xMiAxLjMzOCA1LjQ3Ni44MTMgMi42MDIgMS40ODQgNi4yNzQgNC45MjIgNC4zOTgtLjMyNyAxLjQ4Ni0yLjIzNyAyLjQwOC0xLjcxIDQuMTQxLjMzIDEuMDg3IDMuOTQgMi40MyA1LjA4NCAzLjA3NiAyLjExMSAxLjE5IDQuMDM3IDEuODQ4IDUuNjU5IDIuNTQ0LTcuMzcuMjAyLTE0LjI5MS44MDItMjEuMTAyIDEuNzI5LS44MTYtMS4yNjQtLjQ4Ny0zLjIxMi0uNTczLTUuMjI1LS4wOTQtMi4xODYuODE1LTcuMTE0LS4wNDQtNy40Mi0uOTcxLS4zNDUtMS4xNTMgMS42MjMtMS4xODggMi4wNTctLjE4MiAyLjMwOCAxLjA5OSA3LjE5NS0uMTY0IDkuOTU4LTEuMzgyLS4zOTEtMi4wNjMtMS40My0zLjM1OC0xLjkwMi0uNTA4IDEuNiAxLjA1MiAxLjY3Ny44OTIgMi42OTMtLjIxMiAxLjM0My0yLjc1Ny4yMi0yLjc0MyAyLjIxNyAxLjY1Ny4yNjYgNC4xOTktLjUxNSA1Ljk3LjIzMi40NjMgNS40MzMgMS4yMDcgMTAuNTgxIDIuMDIyIDE2LjM1Mi03LjA0OC0uMzY2LTExLjYxLTMuODY4LTE2LjgwNS02LjI5Ny0uMzIzLTExLjQ5LTIuMTU0LTIzLjQxLTYuNjg4LTMzLjE0IDQuNzU2LTMuNjcgMTAuMDc4LTcuNTUyIDE1Ljc3LTkuNzk2em0zOS4wODIgMi42MjZjLjMxNi4wMTUuNjEzLjA5NC44ODQuMjUyIDEuMDMyLjYwMiAxLjQ3MSA0LjAzNiAxLjU1MSA1LjcwNi4wNjcgMS4zODUtLjEyNiAyLjc4My0uNjkgMy41MTctMi45MDItLjA4NS01LjUyNC0uNDMtNy44Mi0xLjA3OC4xNTctLjk0LS4xMzUtMS44NjUuMS0yLjU0My42MzktLjQ2IDEuNzExLS40NTIgMi42NzgtLjU2LS44MzYtLjQxMi0yLjAxLS41NzUtMi45NzUtLjMzNy0uMDIzLS42NTQtLjMxNi0xLjA1OC0uNDkzLTEuNTcgMS40MjctLjUwOSA0LjU1NC0zLjQ5NiA2Ljc2NS0zLjM4N3ptLTUuMi4xMjdjLTEuMjE4Ljc5NC0yLjI1NSAxLjc4Ny0zLjQyNCAyLjYzNS0yLjU5My4xMjktNC4wMDgtLjE3OS01LjkxMy0xLjY2OC4wMy0uMTIuMjIyLS4wNjYuMjMtLjIxMyAyLjc3NSAxLjIzNyA2LjMwNC0uNTA0IDkuMTA2LS43NTR6bS0yNy4zNDcuMDQ5YzEuNDQ3IDEuMDA1IDQuMjQ3Ljc1NyA2LjM3OCAxLjEzMS4xMS42ODMtLjQ0MiAxLjU4LS40MzIgMi41MzEtMS43OTMtLjExLTcuNDI3LTIuMTYtNS45NDYtMy42NjJ6bTkuNzcyLjU3M2MuMTU1LS4wMDQuMzIxLjAxMS41LjA0NSAyLjMwNC40NCA0Ljk4NCAxLjUwMiA2Ljc2OCAyLjQ3NyAxLjA5LjU5NiAxLjcyMSAxLjMzMiAzLjM3NSAxLjQ2LS4wMDcuMjItLjAxNy40NC0uMDI1LjY2Mi0uOTA2LjU5NS0yLjM2OS41ODgtMy4zNjMgMS4wODggMS40NjYuMDY0IDIuNjIuNDE3IDMuNjE4LjkxNWwtLjA2NSAxLjY1OWMtMS42NjEgMS4xMzctMy4xNzggMi44My01LjEzMyAzLjg5Ni0uOTI1LjUwNC00LjE3IDEuODAyLTUuMTUzIDEuNTcyLS41NTctLjEyOS0uNjA3LS44Mi0uODMtMS40Ny0uNDczLTEuMzk1LTEuNTY0LTMuNjE0LTEuNjYtNS43MTItLjExMy0yLjQ4NS0uMzU2LTYuNTQ1IDEuOTY4LTYuNTkyem0xMy4yOTQgMy40NjNjLjEzNy0uMDExLjI2Ny0uMDA3LjM5LjAxMSAyLjEyNi4zMTMgMS45NzIgNC43MjItMS4zOTIgMy42Ny0uMjUzLTEuNDQ0LS41NDYtMS44NTYtLjQzMy0zLjExNS41NDItLjM2MSAxLjAyMi0uNTMzIDEuNDM1LS41NjZ6bTEuOTM2IDUuMDE0YzEuMjE4LjEzIDIuMTgyIDEuODEgMy45MiAxLjctLjI3OSA0LjUzMi0uMTMzIDkuMDgtMS4zOTggMTMuMjMyLTIuMzU3LTQuMzIyLTMuNzQ0LTkuNTQtNi43OTUtMTMuMjE3LjMyMi0uMzQyLjYxLS43MjEuOTI2LTEuMDcxIDEuMzgyLjU3OCAyLjI4NC0uNzU4IDMuMzQ3LS42NDR6bTcuMDA4IDEuNDQyYzEuNjc4LS4wMTMgMy4wNTIgMS4wODQgMy44MDcgMi4yOTctMi4zNjQgNC4wNS00LjYyNiA4LjIwOC03LjQzIDExLjc4IDEuMTc1LTMuNDU4IDEuNjc5LTkuMjQ1IDEuODU3LTEzLjY1N2E0LjIyMiA0LjIyMiAwIDAgMSAxLjc2Ni0uNDJ6TTcxLjcxIDc2LjAzYzIuOCAzLjU1NCA0LjUwNCA4LjEyNSA2LjM4IDEyLjUzNy00LjQzMi0xLjMzNi04Ljk2LTMuNTA0LTEyLjg0NC01LjcwMi43NjItMy4zMDQgMy43NS01LjAxNiA2LjQ2NC02LjgzNXptMjkuNTExIDExLjcyOGMxLjIxNy4wMyAyLjQyNiAxLjAxOCAyLjk1NSAxLjgxOS45NTYgMS40NDQgMS44NDkgNS42OTUgMi4zNSA3Ljk1Mi43NDcgMy4zNTktLjkzMiA2LjYyOS0zLjYwMyA3LjI3N3YuMDAxYy0xLjk0NC40NzItNC45MjYuNTk2LTYuMTk5LS4wMTkgMS41NTgtLjg1MSAzLjg5OS0uODU2IDUuNzAyLTEuNDQtMi41ODMtMS4xMTItNi40MDUtLjA2NC05LjUxMS0uMjU4LS4zNzUtMy44MzUtLjY1OC03Ljk5My0xLjU2Ny0xMS4wMiAxLjgxMy0xLjkyNyA2LjE5My0yLjM5IDguNjgtMy45ODFhMi4wNzcgMi4wNzcgMCAwIDEgMS4xOTMtLjMzMXptLS4yMTEgMy41NzhjLTMuMTgzLjA5NC01LjY3LjkzNy03LjA5IDIuOTM4IDIuNTgzLjE2NSA0LjQ0My0yLjQwOCA3LjA5LTIuOTM4em0tMTIuNTQuNzg1Yy4yMjUuMDEuNDQ3LjAzNS42Ni4wODMgMS42OTIgMi45MSAyLjA1NiA3Ljc0OSAyIDExLjI2MS0xLjA1NS4yMDQtMS43NC44MDgtMy4wMi43NjgtLjMyNy00LjAwMS0xLjI1Ni04LjIwOC0xLjYzOC0xMi4wMi42MS0uMDEyIDEuMzItLjEyIDEuOTk3LS4wOTJ6bS0xOS42MDMuMDQzYzMuMzQtLjA1NCA2LjU4LjE0MiA5LjM4NS43MjYuNjg1IDQuNDUzLjQzIDguODQ1LjkzIDEzLjIxLjY2MiA1LjgwOC4xNjYgMTIuNDM0IDEuMyAxNy44NzYtNi4xNzMgMS45MTMtMTQuNTkgMS43MjgtMjEuNTc0LS4zOTItMy4xNDctOS42NDMtNC44NjMtMTguNzk2LTYuMDQ3LTI5LjY4NSA0LjU4Ny0uODU4IDEwLjQzNy0xLjY0NSAxNi4wMDYtMS43MzV6bTE0LjgyNC4zODRjMS4xMDMgMy45ODcgMS4wMzcgOS4wNiAxLjU3OSAxMy41NjctMS42NjguMzY2LTIuODg4LjU0NS00LjY4My44MTUtLjM1Ny00LjY4Mi0uNjMtOS4yOTUtLjU2Ni0xMy45NzEgMS4yNzItLjQyNiAyLjM5NC0uNCAzLjY3LS40MTF6bTE0LjQ4NiAyLjI5NmMtMS4yNi4wMTYtMi4zOTQuMjktMi44OCAxLjAzMiAyLjE5LjE4IDQuNzIyLS4xNyA2Ljg4LS4zOTgtLjk4NC0uMzQtMi41NzItLjY1My00LS42MzR6bS0uMzYxIDMuMjRjLTEuMTI4LjAxNC0yLjEyMy4yMjgtMi42MzQuNzc3IDIuMzA0LjE5MyA1LjMxOC4yNDEgNy43NDMuMTg5LS45ODMtLjQ1OC0zLjIzLS45OS01LjExLS45NjZ6TTgzLjA5OCAxMDguODJjLjIzNi0uMDM3LjQ1LS4wNDUuNjI3LjAwMi4zNDggMy4wNDUgMS41NTUgNi4xMzEgMS40MDQgOS40NjYtMS4zNC40NTItMi4xMS44NDgtMy45MDcuODQ1LS4xMjYtMi44MzQtLjUwNi03LjE2Ni0uMzkyLTkuODY4LjY2Mi4wNDQgMS41NjEtLjMzNCAyLjI2OC0uNDQ1eiIgZmlsbD0iIzIzMWYyMCIvPjxwYXRoIGQ9Ik04NC40OCA3NC40ODZhNC4yMjUgNC4yMjUgMCAwIDAtMS43NjcuNDJjLS4xNzggNC40MTItLjY4IDEwLjE5OS0xLjg1NiAxMy42NTYgMi44MDUtMy41NzEgNS4wNjYtNy43MyA3LjQzLTExLjc3OS0uNzU2LTEuMjEzLTIuMTI5LTIuMzEtMy44MDctMi4yOTd6TTcxLjcxIDc2LjAzYy0yLjcxNCAxLjgyLTUuNyAzLjUzMi02LjQ2MyA2LjgzNiAzLjg4NCAyLjE5OCA4LjQxMiA0LjM2NSAxMi44NDQgNS43MDEtMS44NzYtNC40MS0zLjU4LTguOTgyLTYuMzgxLTEyLjUzN3oiIGZpbGw9IiM4MWIwYzQiLz48cGF0aCBkPSJNNzkuODE3IDYzLjk0NWMtMS4yMTguNzk1LTIuMjU1IDEuNzg3LTMuNDI0IDIuNjM2LTIuNTkzLjEyOC00LjAwOC0uMTgtNS45MTMtMS42NjkuMDMxLS4xMi4yMjMtLjA2Ni4yMy0uMjEzIDIuNzc1IDEuMjM3IDYuMzA0LS41MDQgOS4xMDctLjc1NCIgZmlsbD0iI2YwZDZiNyIvPjxwYXRoIGQ9Ik03OS4xMzUgNzYuNzI4YS45NC45NCAwIDEgMS0xLjg4MSAwIC45NC45NCAwIDAgMSAxLjg4MSAwbS45NDEgNC4zNjFhLjk0Ljk0IDAgMSAxLTEuODgyIDAgLjk0Ljk0IDAgMCAxIDEuODgyIDAiIGZpbGw9IiMxZDE5MTkiLz48L3N2Zz4=;spacing=0;" parent="1" vertex="1">
          <mxGeometry x="310" y="672.61" width="68.87" height="94.79" as="geometry" />
        </mxCell>
        <mxCell id="9e6MzxmHjuTmwUIpaCFs-113" value="Kaniko" style="shape=image;imageAspect=0;aspect=fixed;verticalLabelPosition=bottom;verticalAlign=top;image=data:image/svg+xml,PHN2ZyB4bWxucz0iaHR0cDovL3d3dy53My5vcmcvMjAwMC9zdmciIHZpZXdCb3g9Ijg1IDU3Ljc3NjAwMDk3NjU2MjUgMTQyIDE0MS45OTg5OTI5MTk5MjE4OCIgaGVpZ2h0PSIyNTMuMDAyNzUzNjkzODk4MDYiIHdpZHRoPSIyNTMuMDA0NTQ4MDMwNzk5NDQiIHhtbDpzcGFjZT0icHJlc2VydmUiPiYjeGE7ICA8ZGVmcz4mI3hhOyAgICA8ZmlsdGVyIGZpbHRlclVuaXRzPSJ1c2VyU3BhY2VPblVzZSIgeT0iNTkuNzc2IiB4PSI4NyIgaGVpZ2h0PSIxMzgiIHdpZHRoPSIxMzgiIGlkPSJhIj4mI3hhOyAgICAgIDxmZUNvbG9yTWF0cml4IHZhbHVlcz0iLTEgMCAwIDAgMSAwIC0xIDAgMCAxIDAgMCAtMSAwIDEgMCAwIDAgMSAwIiByZXN1bHQ9InNvdXJjZSIgY29sb3ItaW50ZXJwb2xhdGlvbi1maWx0ZXJzPSJzUkdCIi8+JiN4YTsgICAgICA8ZmVGbG9vZCBzdHlsZT0iZmxvb2QtY29sb3I6d2hpdGU7Zmxvb2Qtb3BhY2l0eToxIiByZXN1bHQ9ImJhY2siLz4mI3hhOyAgICAgIDxmZUJsZW5kIGluMj0iYmFjayIgaW49InNvdXJjZSIvPiYjeGE7ICAgIDwvZmlsdGVyPiYjeGE7ICA8L2RlZnM+JiN4YTsgIDxtYXNrIG1hc2tVbml0cz0idXNlclNwYWNlT25Vc2UiIHk9IjU5Ljc3NiIgeD0iODciIGhlaWdodD0iMTM4IiB3aWR0aD0iMTM4IiBpZD0iYiI+JiN4YTsgICAgPGcgZmlsdGVyPSJ1cmwoI2EpIj4mI3hhOyAgICAgIDxwYXRoIGQ9Ik0xNTcgNzkuODU0djk5bTY5LjkzNSAxMC45MDhTMjE3IDEyOC45NTkgMTM5IDEyOC45NTl2LTEuMDQ1Yzc4IDAgODYuOTctNjAuODAyIDg2Ljk3LTYwLjgwMiIgc3Ryb2tlLXdpZHRoPSI0IiBzdHJva2UtbWl0ZXJsaW1pdD0iMTAiIHN0cm9rZT0iI0ZGRiIgZmlsbD0ibm9uZSIvPiYjeGE7ICAgICAgPHBhdGggZD0iTTIyNSA3Ny4xNDR2MTAwcy0xNC42MzEtMzguNTExLTY2Ljk1NS00OC43MTNjMCAwIDQ1LjExNS00Ljk2MyA2Ni45NTUtNTEuMjg3eiIgZmlsbD0iI0ZGRiIvPiYjeGE7ICAgIDwvZz4mI3hhOyAgPC9tYXNrPiYjeGE7ICA8cGF0aCBtYXNrPSJ1cmwoI2IpIiBkPSJNMjI1IDE4MS4xNzljMCA5LjE2Ni03LjQzIDE2LjU5Ni0xNi41OTYgMTYuNTk2SDEwMy41OTZjLTkuMTY2IDAtMTYuNTk2LTcuNDMtMTYuNTk2LTE2LjU5NlY3Ni4zNzJjMC05LjE2NiA3LjQzLTE2LjU5NiAxNi41OTYtMTYuNTk2aDEwNC44MDhjOS4xNjYgMCAxNi41OTYgNy40MyAxNi41OTYgMTYuNTk2djEwNC44MDd6IiBmaWxsPSIjRkRBNDAzIi8+JiN4YTsgIDxwYXRoIGQ9Ik0yMjUgNzcuOTk5djk4LjMxM3MtMTQuMzg0LTM3Ljg2MS02NS44MjUtNDcuODkxYzAgMCA0NC4zNTMtNC44OCA2NS44MjUtNTAuNDIyeiIgZmlsbD0iIzk5OSIvPiYjeGE7PC9zdmc+;spacing=6;" parent="1" vertex="1">
          <mxGeometry x="484" y="684.6" width="70" height="70" as="geometry" />
        </mxCell>
        <mxCell id="9e6MzxmHjuTmwUIpaCFs-121" style="edgeStyle=orthogonalEdgeStyle;rounded=0;orthogonalLoop=1;jettySize=auto;html=1;entryX=0;entryY=0.5;entryDx=0;entryDy=0;strokeWidth=2;shadow=1;exitX=1;exitY=0.5;exitDx=0;exitDy=0;" parent="1" source="9e6MzxmHjuTmwUIpaCFs-113" target="y-YY-3M0lb4zFeIpcYg8-2" edge="1">
          <mxGeometry relative="1" as="geometry">
            <mxPoint x="518" y="831.4999999999998" as="targetPoint" />
          </mxGeometry>
        </mxCell>
        <mxCell id="9e6MzxmHjuTmwUIpaCFs-130" style="edgeStyle=orthogonalEdgeStyle;rounded=0;orthogonalLoop=1;jettySize=auto;html=1;entryX=0.429;entryY=1.008;entryDx=0;entryDy=0;entryPerimeter=0;strokeWidth=2;shadow=1;" parent="1" edge="1">
          <mxGeometry relative="1" as="geometry">
            <mxPoint x="650" y="670" as="sourcePoint" />
            <mxPoint x="650.2999999999997" y="511.68000000000006" as="targetPoint" />
          </mxGeometry>
        </mxCell>
        <mxCell id="9e6MzxmHjuTmwUIpaCFs-131" value="Deploy" style="edgeLabel;html=1;align=center;verticalAlign=middle;resizable=0;points=[];fontSize=12;" parent="9e6MzxmHjuTmwUIpaCFs-130" vertex="1" connectable="0">
          <mxGeometry x="0.0667" y="1" relative="1" as="geometry">
            <mxPoint y="43" as="offset" />
          </mxGeometry>
        </mxCell>
        <mxCell id="9e6MzxmHjuTmwUIpaCFs-134" value="&lt;font style=&quot;&quot;&gt;&lt;font style=&quot;font-size: 20px;&quot;&gt;Monitoring&lt;/font&gt;&lt;br&gt;&lt;/font&gt;" style="rounded=1;whiteSpace=wrap;html=1;strokeWidth=2;" parent="1" vertex="1">
          <mxGeometry x="770" y="650" width="320" height="140" as="geometry" />
        </mxCell>
        <mxCell id="9e6MzxmHjuTmwUIpaCFs-135" value="" style="shape=image;imageAspect=0;aspect=fixed;verticalLabelPosition=bottom;verticalAlign=top;image=data:image/svg+xml,PHN2ZyB4bWxucz0iaHR0cDovL3d3dy53My5vcmcvMjAwMC9zdmciIHZpZXdCb3g9IjcgMiAxMTQuMjAwMDM1MDk1MjE0ODQgMTI0IiB3aWR0aD0iMTE0LjIwMDAzNTA5NTIxNDg0IiBoZWlnaHQ9IjEyNCI+PGxpbmVhckdyYWRpZW50IGdyYWRpZW50VHJhbnNmb3JtPSJ0cmFuc2xhdGUoLS4yMyAyOC40NjIpIHNjYWxlKDEuNDAxMSkiIHkyPSI4LjgwMiIgeDI9IjQ1Ljg0MiIgeTE9Ijg5LjU3IiB4MT0iNDUuODQyIiBncmFkaWVudFVuaXRzPSJ1c2VyU3BhY2VPblVzZSIgaWQ9ImdyYWZhbmEtb3JpZ2luYWwtYSI+PHN0b3Agc3RvcC1jb2xvcj0iI2ZjZWUxZiIgb2Zmc2V0PSIwIi8+PHN0b3Agc3RvcC1jb2xvcj0iI2YxNWIyYSIgb2Zmc2V0PSIxIi8+PC9saW5lYXJHcmFkaWVudD48cGF0aCBkPSJNMTIwLjggNTYuOWMtLjItMi4xLS42LTQuNS0xLjItNy4ycy0xLjgtNS41LTMuMi04LjZjLTEuNS0zLTMuNC02LjItNS45LTkuMS0xLTEuMi0yLjEtMi4zLTMuMi0zLjUgMS44LTYuOS0yLjEtMTMtMi4xLTEzLTYuNy0uNC0xMC45IDIuMS0xMi40IDMuMi0uMi0uMS0uNi0uMi0uOC0uMy0xLjEtLjQtMi4zLS45LTMuNS0xLjMtMS4yLS4zLTIuNC0uOC0zLjYtMS0xLjItLjMtMi41LS42LTMuOS0uOC0uMiAwLS40LS4xLS43LS4xQzc3LjUgNiA2OS4xIDIgNjkuMSAyYy05LjYgNi4yLTExLjQgMTQuNC0xMS40IDE0LjRzMCAuMi0uMS40Yy0uNi4xLTEgLjMtMS41LjQtLjcuMi0xLjQuNC0yLjEuOGwtMi4xLjljLTEuNC43LTIuOCAxLjMtNC4yIDIuMS0xLjMuOC0yLjYgMS41LTMuOSAyLjQtLjItLjEtLjMtLjItLjMtLjItMTIuOS01LTI0LjMgMS0yNC4zIDEtMSAxMy44IDUuMiAyMi4zIDYuNCAyMy45LS4zLjktLjYgMS43LS45IDIuNS0xIDMuMS0xLjcgNi4zLTIuMSA5LjYtLjEuNC0uMSAxLS4yIDEuNEMxMC41IDY3LjUgNyA3OS42IDcgNzkuNiAxNi45IDkxIDI4LjUgOTEuNyAyOC41IDkxLjdjMS40IDIuNiAzLjIgNS4yIDUuMSA3LjUuOCAxIDEuNyAxLjkgMi41IDIuOS0zLjYgMTAuMy42IDE5IC42IDE5IDExLjEuNCAxOC40LTQuOCAxOS45LTYuMSAxLjEuMyAyLjIuNyAzLjMgMSAzLjQuOSA2LjkgMS40IDEwLjMgMS41aDQuNWM1LjIgNy41IDE0LjQgOC41IDE0LjQgOC41IDYuNS02LjkgNi45LTEzLjYgNi45LTE1LjJ2LS42YzEuMy0xIDIuNi0yIDQtMy4xIDIuNi0yLjMgNC44LTUuMSA2LjgtNy45LjItLjIuMy0uNi42LS44IDcuNC40IDEyLjUtNC42IDEyLjUtNC42LTEuMi03LjctNS42LTExLjQtNi41LTEyLjFsLS4xLS4xLS4xLS4xLS4xLS4xYzAtLjQuMS0uOS4xLTEuNC4xLS45LjEtMS43LjEtMi41di0zLjNjMC0uMiAwLS40LS4xLS43bC0uMS0uNy0uMS0uN2MtLjEtLjktLjMtMS43LS40LTIuNS0uOC0zLjMtMi4xLTYuNS0zLjctOS4yLTEuOC0yLjktMy45LTUuMy02LjMtNy41LTIuNC0yLjEtNS4xLTMuOS03LjktNS4xLTIuOS0xLjMtNS43LTIuMS04LjctMi40LTEuNC0uMi0zLS4yLTQuNC0uMmgtMi4zYy0uOC4xLTEuNS4yLTIuMi4zLTMgLjYtNS43IDEuNy04LjEgMy4xLTIuNCAxLjQtNC41IDMuMy02LjMgNS40LTEuOCAyLjEtMy4xIDQuMy00IDYuNy0uOSAyLjMtMS40IDQuOC0xLjUgNy4ydjIuNmMwIC4zIDAgLjYuMS45LjEgMS4yLjMgMi4zLjcgMy40LjcgMi4yIDEuNyA0LjIgMyA1LjlzMi44IDMuMSA0LjQgNC4yYzEuNyAxLjEgMy4zIDEuOSA1LjEgMi40czMuNC44IDUgLjdoMi4zYy4yIDAgLjQtLjEuNi0uMS4yIDAgLjMtLjEuNi0uMS4zLS4xLjgtLjIgMS4xLS4zLjctLjIgMS4zLS42IDItLjguNy0uMyAxLjItLjcgMS43LTEgLjEtLjEuMy0uMi40LS4zLjYtLjQuNy0xLjIuMi0xLjgtLjQtLjQtMS4xLS42LTEuNy0uMy0uMS4xLS4yLjEtLjQuMi0uNC4yLTEgLjQtMS40LjYtLjYuMS0xLjEuMy0xLjcuNC0uMyAwLS42LjEtLjkuMWgtMS44cy0uMSAwIDAgMGgtLjdjLS4xIDAtLjMgMC0uNC0uMS0xLjItLjItMi41LS42LTMuNy0xLjEtMS4yLS42LTIuNC0xLjMtMy40LTIuMy0xLjEtMS0yLTIuMS0yLjgtMy40LS44LTEuMy0xLjItMi44LTEuNC00LjItLjEtLjgtLjItMS41LS4xLTIuM3YtLjdjMCAuMSAwIDAgMCAwVjcwYzAtLjQuMS0uOC4yLTEuMi42LTMuMyAyLjItNi41IDQuNy04LjkuNy0uNyAxLjMtMS4yIDIuMS0xLjcuOC0uNiAxLjUtMSAyLjMtMS4zLjgtLjMgMS43LS43IDIuNS0uOS45LS4yIDEuOC0uNCAyLjYtLjQuNCAwIC45LS4xIDEuMy0uMWguOGMuMSAwIDAgMCAwIDBoLjRjMSAuMSAyIC4yIDIuOS40IDEuOS40IDMuNyAxLjEgNS41IDIuMSAzLjUgMiA2LjUgNSA4LjMgOC42LjkgMS44IDEuNSAzLjcgMS45IDUuOC4xLjYuMSAxIC4yIDEuNXYyLjdjMCAuNi0uMSAxLjEtLjEgMS43LS4xLjYtLjEgMS4xLS4yIDEuN3MtLjIgMS4xLS4zIDEuN2MtLjIgMS4xLS43IDIuMS0xIDMuMi0uOCAyLjEtMS45IDQuMS0zLjIgNS44LTIuNiAzLjYtNi4zIDYuNi0xMC4zIDguNS0yLjEuOS00LjIgMS43LTYuNCAyLTEuMS4yLTIuMi4zLTMuMy4zaC0xLjZjLjEgMCAwIDAgMCAwaC0uMWMtLjYgMC0xLjIgMC0xLjgtLjEtMi40LS4yLTQuNy0uNy03LTEuMy0yLjMtLjctNC41LTEuNS02LjYtMi42LTQuMi0yLjItNy45LTUuNC0xMC45LTktMS40LTEuOS0yLjgtMy45LTMuOS01LjlzLTEuOS00LjMtMi41LTYuNWMtLjctMi4yLTEtNC41LTEuMS02Ljh2LTMuNWMwLTEuMS4xLTIuMy4zLTMuNS4xLTEuMi4zLTIuMy42LTMuNS4yLTEuMi42LTIuMy45LTMuNS43LTIuMyAxLjQtNC41IDIuNC02LjYgMi00LjIgNC41LTcuOSA3LjUtMTAuOS44LS44IDEuNS0xLjQgMi40LTIuMS4zLS4zIDEuMS0xIDItMS41czEuOC0xLjEgMi44LTEuNWMuNC0uMi45LS40IDEuNC0uNy4yLS4xLjQtLjIuOC0uMy4yLS4xLjQtLjIuOC0uMyAxLS40IDItLjggMy0xLjEuMi0uMS42LS4xLjgtLjIuMi0uMS42LS4xLjgtLjIuNi0uMSAxLS4yIDEuNS0uNC4yLS4xLjYtLjEuOC0uMi4yIDAgLjYtLjEuOC0uMS4yIDAgLjYtLjEuOC0uMWwuNC0uMS40LS4xYy4yIDAgLjYtLjEuOC0uMS4zIDAgLjYtLjEuOS0uMS4yIDAgLjctLjEuOS0uMS4yIDAgLjMgMCAuNi0uMWguN2MuMyAwIC42IDAgLjktLjFoLjRzLjEgMCAwIDBoNC4xYzIgLjEgNCAuMyA1LjguNyAzLjcuNyA3LjQgMS45IDEwLjYgMy41IDMuMiAxLjUgNi4yIDMuNSA4LjYgNS42LjEuMS4zLjIuNC40LjEuMS4zLjIuNC40LjMuMi42LjYuOS44LjMuMi42LjYuOS44LjIuMy42LjYuOC45IDEuMSAxLjEgMi4xIDIuMyAzIDMuNCAxLjggMi4zIDMuMiA0LjYgNC4zIDYuOC4xLjEuMS4yLjIuNC4xLjEuMS4yLjIuNHMuMi42LjQuOGMuMS4yLjIuNi4zLjguMS4yLjIuNi4zLjguNCAxIC44IDIgMS4xIDMgLjYgMS41LjkgMi45IDEuMiA0IC4xLjQuNi44IDEgLjguNiAwIC45LS40LjktMS0uMy0xLjctLjMtMy4xLS40LTQuOHoiIGZpbGw9InVybCgjZ3JhZmFuYS1vcmlnaW5hbC1hKSIvPjwvc3ZnPg==;base64,PHN2ZyB4bWxucz0iaHR0cDovL3d3dy53My5vcmcvMjAwMC9zdmciIHZpZXdCb3g9IjIuNTA3OTk5NDIwMTY2MDE1NiAyLjQ3Njk5MzU2MDc5MTAxNTYgMTIyLjA2NjA1NTI5Nzg1MTU2IDEyMS4wOTMwMTc1NzgxMjUiIHdpZHRoPSIxMjIuMDY2MDU1Mjk3ODUxNTYiIGhlaWdodD0iMTIxLjA5MzAxNzU3ODEyNSI+PHBhdGggZmlsbD0iI2U3NTIyNSIgZD0iTTYzLjY2IDIuNDc3YzMzLjQ3Ny4wMDcgNjAuOTU3IDI3LjI5NiA2MC45MTQgNjAuNS0uMDQzIDMzLjcwMy0yNy40MSA2MC42MTctNjEuNjEzIDYwLjU5My0zMy40NDEtLjAyMy02MC40NzctMjcuMzQzLTYwLjQ1My02MS4wODZDMi41MyAyOS40ODggMzAuMDY2IDIuNDcgNjMuNjYgMi40Nzd6bS0xOC41MDQgMjEuMjVjLjc2NiAzLjc3Ny4wMjQgNy4zLTEuMTEzIDEwLjc2NS0uNzg1IDIuMzk5LTEuODcxIDQuNzExLTIuNTIgNy4xNDUtMS4wNyA0LjAwOC0yLjI4IDguMDM5LTIuNzI2IDEyLjEzNi0uNjQgNS44OTUgMS42NzYgMTEuMDg2IDUuNjQgMTYuMjVsLTE4LjIyMi0zLjgzNWMuMDMxLjU3NCAwIC43OTIuMDYyLjk3NiAxLjcyNyA1LjA3NCA0Ljc2NiA5LjM0OCA4LjE3MiAxMy4zNzkuMzYuNDI2IDEuMTguNjQ0IDEuNzkuNjQ0IDE4LjE2Ny4wMzYgMzYuMzM1LjAzMiA1NC41MDMuMDA4LjU2MyAwIDEuMzE3LS4xMDUgMS42Ni0uNDY4IDMuODk1LTQuMDk0IDYuODcxLTguNzU4IDguNzM1LTE0LjYzbC0xOS4yOSAzLjc3OGMxLjI3NC0yLjQ5NiAyLjcyMy00LjY4OCAzLjU2LTcuMDk4IDIuODU1LTguMjQyIDEuNjcxLTE2LjIxLTIuNDI3LTIzLjcyNi0zLjI4OS02LjAzMS02LjMyNC0xMi4wMzUtNC42ODMtMTkuMzA1LTMuNDczIDMuNDM0LTQuODA5IDcuOC01LjY1NiAxMi4zLS44MzIgNC40MzQtMS4zMjUgOC45My0xLjk3IDEzLjQzLS4wOTMtLjEzNi0uMjEtLjIzOC0uMjMtLjM1NWExMy4zMTcgMTMuMzE3IDAgMDEtLjE2OC0xLjQyMmMtLjM5NC03LjM2Ny0xLjgzMi0xNC40NjUtNC44Ny0yMS4yNDYtMS43ODYtMy45ODgtMy43NTgtOC4wNy0xLjkxNS0xMi44MzItMS4yNDYuNjYtMi4zNzUgMS4zMTMtMy4xODMgMi4yNDYtMi40MSAyLjc4NS0zLjQwNyA2LjEzLTMuNjY0IDkuNzkzLS4yMiAzLjEzLS41MiA2LjI3NC0xLjEwMiA5LjM1Mi0uNjEgMy4yMzQtMS41NzQgNi40MDItMy43NSA5LjM3NS0uODc1LTYuMzQ4LS45NzMtMTIuNjMtNi42MzMtMTYuNjZ6TTkyIDg2Ljc1SDM1LjAxNnY5Ljg5OEg5MnptLTQ1LjY4NCAxNS4wMTZjLS4wNDYgOC4yNDIgOC4zNDggMTQuMzgyIDE4LjcyMyAxMy45MzcgOC42MDItLjM3MSAxNi4yMTEtNy4xMzcgMTUuNTU5LTEzLjkzN3ptMCAwIi8+PC9zdmc+;" parent="1" vertex="1">
          <mxGeometry x="990" y="680" width="73.55" height="80" as="geometry" />
        </mxCell>
        <mxCell id="9e6MzxmHjuTmwUIpaCFs-136" value="" style="shape=image;imageAspect=0;aspect=fixed;verticalLabelPosition=bottom;verticalAlign=top;image=data:image/svg+xml,PHN2ZyB4bWxucz0iaHR0cDovL3d3dy53My5vcmcvMjAwMC9zdmciIHZpZXdCb3g9IjIuNTA3OTk5NDIwMTY2MDE1NiAyLjQ3Njk5MzU2MDc5MTAxNTYgMTIyLjA2NjA1NTI5Nzg1MTU2IDEyMS4wOTMwMTc1NzgxMjUiIHdpZHRoPSIxMjIuMDY2MDU1Mjk3ODUxNTYiIGhlaWdodD0iMTIxLjA5MzAxNzU3ODEyNSI+PHBhdGggZmlsbD0iI2U3NTIyNSIgZD0iTTYzLjY2IDIuNDc3YzMzLjQ3Ny4wMDcgNjAuOTU3IDI3LjI5NiA2MC45MTQgNjAuNS0uMDQzIDMzLjcwMy0yNy40MSA2MC42MTctNjEuNjEzIDYwLjU5My0zMy40NDEtLjAyMy02MC40NzctMjcuMzQzLTYwLjQ1My02MS4wODZDMi41MyAyOS40ODggMzAuMDY2IDIuNDcgNjMuNjYgMi40Nzd6bS0xOC41MDQgMjEuMjVjLjc2NiAzLjc3Ny4wMjQgNy4zLTEuMTEzIDEwLjc2NS0uNzg1IDIuMzk5LTEuODcxIDQuNzExLTIuNTIgNy4xNDUtMS4wNyA0LjAwOC0yLjI4IDguMDM5LTIuNzI2IDEyLjEzNi0uNjQgNS44OTUgMS42NzYgMTEuMDg2IDUuNjQgMTYuMjVsLTE4LjIyMi0zLjgzNWMuMDMxLjU3NCAwIC43OTIuMDYyLjk3NiAxLjcyNyA1LjA3NCA0Ljc2NiA5LjM0OCA4LjE3MiAxMy4zNzkuMzYuNDI2IDEuMTguNjQ0IDEuNzkuNjQ0IDE4LjE2Ny4wMzYgMzYuMzM1LjAzMiA1NC41MDMuMDA4LjU2MyAwIDEuMzE3LS4xMDUgMS42Ni0uNDY4IDMuODk1LTQuMDk0IDYuODcxLTguNzU4IDguNzM1LTE0LjYzbC0xOS4yOSAzLjc3OGMxLjI3NC0yLjQ5NiAyLjcyMy00LjY4OCAzLjU2LTcuMDk4IDIuODU1LTguMjQyIDEuNjcxLTE2LjIxLTIuNDI3LTIzLjcyNi0zLjI4OS02LjAzMS02LjMyNC0xMi4wMzUtNC42ODMtMTkuMzA1LTMuNDczIDMuNDM0LTQuODA5IDcuOC01LjY1NiAxMi4zLS44MzIgNC40MzQtMS4zMjUgOC45My0xLjk3IDEzLjQzLS4wOTMtLjEzNi0uMjEtLjIzOC0uMjMtLjM1NWExMy4zMTcgMTMuMzE3IDAgMDEtLjE2OC0xLjQyMmMtLjM5NC03LjM2Ny0xLjgzMi0xNC40NjUtNC44Ny0yMS4yNDYtMS43ODYtMy45ODgtMy43NTgtOC4wNy0xLjkxNS0xMi44MzItMS4yNDYuNjYtMi4zNzUgMS4zMTMtMy4xODMgMi4yNDYtMi40MSAyLjc4NS0zLjQwNyA2LjEzLTMuNjY0IDkuNzkzLS4yMiAzLjEzLS41MiA2LjI3NC0xLjEwMiA5LjM1Mi0uNjEgMy4yMzQtMS41NzQgNi40MDItMy43NSA5LjM3NS0uODc1LTYuMzQ4LS45NzMtMTIuNjMtNi42MzMtMTYuNjZ6TTkyIDg2Ljc1SDM1LjAxNnY5Ljg5OEg5MnptLTQ1LjY4NCAxNS4wMTZjLS4wNDYgOC4yNDIgOC4zNDggMTQuMzgyIDE4LjcyMyAxMy45MzcgOC42MDItLjM3MSAxNi4yMTEtNy4xMzcgMTUuNTU5LTEzLjkzN3ptMCAwIi8+PC9zdmc+;" parent="1" vertex="1">
          <mxGeometry x="790" y="680" width="80.66" height="80" as="geometry" />
        </mxCell>
        <mxCell id="9e6MzxmHjuTmwUIpaCFs-137" value="&lt;font style=&quot;font-size: 50px;&quot;&gt;&lt;b style=&quot;background-color: light-dark(#ffffff, var(--ge-dark-color, #121212));&quot;&gt;EKS Deployment&lt;/b&gt;&lt;/font&gt;" style="text;html=1;align=center;verticalAlign=middle;resizable=0;points=[];autosize=1;strokeColor=none;fillColor=none;" parent="1" vertex="1">
          <mxGeometry x="385" y="70" width="430" height="70" as="geometry" />
        </mxCell>
        <mxCell id="9e6MzxmHjuTmwUIpaCFs-138" value="" style="html=1;shadow=0;dashed=0;align=center;verticalAlign=middle;shape=mxgraph.arrows2.stylisedArrow;dy=0.6;dx=40;notch=15;feather=0.4;rotation=-90;" parent="1" vertex="1">
          <mxGeometry x="843.75" y="566.25" width="162.5" height="60" as="geometry" />
        </mxCell>
        <mxCell id="9e6MzxmHjuTmwUIpaCFs-139" value="&lt;font style=&quot;font-size: 16px;&quot;&gt;CI/CD Pipeline&lt;/font&gt;" style="text;html=1;align=center;verticalAlign=middle;resizable=0;points=[];autosize=1;strokeColor=none;fillColor=none;" parent="1" vertex="1">
          <mxGeometry x="90" y="650" width="130" height="30" as="geometry" />
        </mxCell>
        <mxCell id="U4WD4REOMSgNxI5-Pewu-2" value="" style="shape=image;imageAspect=0;aspect=fixed;verticalLabelPosition=bottom;verticalAlign=top;image=data:image/svg+xml,PHN2ZyB4bWxucz0iaHR0cDovL3d3dy53My5vcmcvMjAwMC9zdmciIGhlaWdodD0iOTYuMDAwNDA0MzU3OTEwMTYiIHdpZHRoPSI5Ny42MjcyMjc3ODMyMDMxMiIgdmlld0JveD0iMCAwIDk3LjYyNzIyNzc4MzIwMzEyIDk2LjAwMDQwNDM1NzkxMDE2Ij48cGF0aCBmaWxsPSIjMjQyOTJmIiBkPSJNNDguODU0IDBDMjEuODM5IDAgMCAyMiAwIDQ5LjIxN2MwIDIxLjc1NiAxMy45OTMgNDAuMTcyIDMzLjQwNSA0Ni42OSAyLjQyNy40OSAzLjMxNi0xLjA1OSAzLjMxNi0yLjM2MiAwLTEuMTQxLS4wOC01LjA1Mi0uMDgtOS4xMjctMTMuNTkgMi45MzQtMTYuNDItNS44NjctMTYuNDItNS44NjctMi4xODQtNS43MDQtNS40Mi03LjE3LTUuNDItNy4xNy00LjQ0OC0zLjAxNS4zMjQtMy4wMTUuMzI0LTMuMDE1IDQuOTM0LjMyNiA3LjUyMyA1LjA1MiA3LjUyMyA1LjA1MiA0LjM2NyA3LjQ5NiAxMS40MDQgNS4zNzggMTQuMjM1IDQuMDc0LjQwNC0zLjE3OCAxLjY5OS01LjM3OCAzLjA3NC02LjYtMTAuODM5LTEuMTQxLTIyLjI0My01LjM3OC0yMi4yNDMtMjQuMjgzIDAtNS4zNzggMS45NC05Ljc3OCA1LjAxNC0xMy4yLS40ODUtMS4yMjItMi4xODQtNi4yNzUuNDg2LTEzLjAzOCAwIDAgNC4xMjUtMS4zMDQgMTMuNDI2IDUuMDUyYTQ2Ljk3IDQ2Ljk3IDAgMCAxIDEyLjIxNC0xLjYzYzQuMTI1IDAgOC4zMy41NzEgMTIuMjEzIDEuNjMgOS4zMDItNi4zNTYgMTMuNDI3LTUuMDUyIDEzLjQyNy01LjA1MiAyLjY3IDYuNzYzLjk3IDExLjgxNi40ODUgMTMuMDM4IDMuMTU1IDMuNDIyIDUuMDE1IDcuODIyIDUuMDE1IDEzLjIgMCAxOC45MDUtMTEuNDA0IDIzLjA2LTIyLjMyNCAyNC4yODMgMS43OCAxLjU0OCAzLjMxNiA0LjQ4MSAzLjMxNiA5LjEyNiAwIDYuNi0uMDggMTEuODk3LS4wOCAxMy41MjYgMCAxLjMwNC44OSAyLjg1MyAzLjMxNiAyLjM2NCAxOS40MTItNi41MiAzMy40MDUtMjQuOTM1IDMzLjQwNS00Ni42OTFDOTcuNzA3IDIyIDc1Ljc4OCAwIDQ4Ljg1NCAweiIgY2xpcC1ydWxlPSJldmVub2RkIiBmaWxsLXJ1bGU9ImV2ZW5vZGQiLz48L3N2Zz4=;" parent="1" vertex="1">
          <mxGeometry x="130" y="683.6" width="73.49" height="72" as="geometry" />
        </mxCell>
        <mxCell id="y-YY-3M0lb4zFeIpcYg8-2" value="" style="shape=image;imageAspect=0;aspect=fixed;verticalLabelPosition=bottom;verticalAlign=top;image=data:image/svg+xml,PHN2ZyB4bWxucz0iaHR0cDovL3d3dy53My5vcmcvMjAwMC9zdmciIHZpZXdCb3g9IjE3LjcxNDAwMDcwMTkwNDI5NyAtMC4wMDAzNzgxMzE4NjY0NTUwNzgxIDkyLjU3Mzk4OTg2ODE2NDA2IDEyOC4wMDAzMDUxNzU3ODEyNSIgd2lkdGg9IjkyLjU3Mzk4OTg2ODE2NDA2IiBoZWlnaHQ9IjEyOC4wMDAzMDUxNzU3ODEyNSI+PHBhdGggZD0iTTEwOC44OTMgNjEuNjhjMCAyNS4zNi0yMC4wOTkgNDUuOTE4LTQ0Ljg5MiA0NS45MTgtMjQuNzk0IDAtNDQuODkzLTIwLjU1OC00NC44OTMtNDUuOTE4czIwLjEtNDUuOTIgNDQuODkzLTQ1LjkyIDQ0Ljg5MiAyMC41NiA0NC44OTIgNDUuOTIiIGZpbGw9IiNkMzM4MzMiLz48cGF0aCBkPSJNMjAuOTM4IDczLjA1MlMxNy42ODggMjUuMTY3IDYxLjgxIDIzLjhsLTMuMDc4LTUuMTMtMjMuOTQzIDguMDM3LTYuODQgNy44NjctNS45ODYgMTEuNDU5LTMuNDIgMTMuMzM5IDEuMDI1IDguODkzIiBmaWxsPSIjZWYzZDNhIi8+PHBhdGggZD0iTTMzLjI1MyAzMC4zNTVjLTcuODc2IDguMDYtMTIuNzUgMTkuMTg2LTEyLjc1IDMxLjQ5NiAwIDEyLjMwNyA0Ljg3NCAyMy40MzYgMTIuNzUgMzEuNDk0IDcuODggOC4wNTcgMTguNzQgMTMuMDMgMzAuNzQ3IDEzLjAzIDEyLjAwNyAwIDIyLjg2Ny00Ljk3MyAzMC43NDctMTMuMDMgNy44NzYtOC4wNTggMTIuNzUxLTE5LjE4NyAxMi43NTEtMzEuNDk0IDAtMTIuMzEtNC44NzUtMjMuNDM3LTEyLjc1MS0zMS40OTZDODYuODY3IDIyLjMgNzYuMDA3IDE3LjMyNyA2NCAxNy4zMjZjLTEyLjAwNi4wMDEtMjIuODY3IDQuOTczLTMwLjc0NyAxMy4wM3pNMzEuMjYgOTUuMjk0Yy04LjM3LTguNTYxLTEzLjU0Ni0yMC4zOTItMTMuNTQ2LTMzLjQ0MyAwLTEzLjA1MyA1LjE3Ni0yNC44ODMgMTMuNTQ2LTMzLjQ0NCA4LjM3LTguNTYzIDE5Ljk1NC0xMy44NyAzMi43NC0xMy44NjkgMTIuNzg4LS4wMDIgMjQuMzc0IDUuMzA2IDMyLjc0MSAxMy44NjkgOC4zNzIgOC41NjEgMTMuNTQ4IDIwLjM5MiAxMy41NDcgMzMuNDQ0IDAgMTMuMDUtNS4xNzUgMjQuODgyLTEzLjU0NyAzMy40NDMtOC4zNjcgOC41NjItMTkuOTUzIDEzLjg3LTMyLjc0IDEzLjg3LTEyLjc4NyAwLTI0LjM3Mi01LjMwOC0zMi43NC0xMy44NyIgZmlsbD0iIzIzMWYyMCIvPjxwYXRoIGQ9Im04Mi44OTggNjEuOTM0LTYuODQxIDEuMDI2LTkuMjM1IDEuMDI2LTUuOTg2LjE3MS01LjgxNS0uMTctNC40NDYtMS4zNjktMy45MzQtNC4yNzUtMy4wNzgtOC43MjItLjY4NC0xLjg4MS00LjEwNS0xLjM2OC0yLjM5NC0zLjkzNC0xLjcxLTUuNjQ0IDEuODgxLTQuOTYgNC40NDYtMS41MzggMy41OTIgMS43MSAxLjcxIDMuNzYyIDIuMDUzLS4zNDIuNjgzLS44NTUtLjY4My0zLjkzMy0uMTcyLTQuOTYgMS4wMjYtNi44NC0uMDQtMy45MDggMy4xMTktNC45ODUgNS40NzItMy45MzQgOS41NzgtNC4xMDQgMTAuNjAzIDEuNTM5IDkuMjM1IDYuNjcgNC4yNzYgNi44NCAyLjczNiA0Ljk2LjY4NCAxMi4zMTMtMi4wNTMgMTAuNjA0LTMuNzYyIDkuNDA1LTMuNTkxIDQuOTYiIGZpbGw9IiNmMGQ2YjciLz48cGF0aCBkPSJtODguMDI3IDU2Ljk3NS00LjEwMyA0LjEwNXYxNS45MDRsLTMuNTggMTQuNjYtMS43MjEuMDQ3IDEuMzY3IDE2LjQxOCA2LjQ5OC0uODU1TDg0Ljk1IDkxLjUybC0yLjkwMi4wNzkgNy44NjMtLjQyMnMzLjkzMi05LjkxOSAzLjkzMi0xMC40MzJjMC0uNTEzIDMuNDIyLTE0LjM2NSAzLjQyMi0xNC4zNjVsLTcuNjk4LTguMDM3LTEuNTM5LTEuMzd6bS00MS4yMTUgMi41NjQtNC4yNzUgMS43MTEtMTMuNjgyIDkuNDA2Ljg1NiAyLjczNyAzLjkzNCAxMS42MjggMS43MDkgMTkuMzI3IDEuMTk3IDIuMDUgMTcuMTAxIDUuODE3IDEuMDI4LTEuMi0yLjA1My0xNC4zNjV2LTQuMTAzbDI0LjQ1NS0xLjAyNyAxLjg4LTEuMDI2LTE0Ljg3Ni03LjAxMiAyLjczNi01LjMtMy45MzMgMS4zNjctMS41NC0xLjg4MS0yLjA1Mi04Ljg5My0xLjcxMS0uNTEzLTMuNzYyLTEuMTk4LTMuMjUtMi45MDYtMy43NjEtNC42MTl6IiBmaWxsPSIjMzM1MDYxIi8+PHBhdGggZD0ibTM2LjU1MSAzMS44MzUgNC40NDYtMS41NCAzLjU5MiAxLjcxMSAxLjcxIDMuNzYyIDIuMDUzLS4zNDIuNTEzLTIuMDUyLTEuMDI2LTMuOTMzIDEuMDI2LTkuNDA3LS44NTYtNS4xMyAzLjA3OS0zLjU5MiA2LjY3LTUuMzAxLTEuODgyLTIuNTY1LTkuNDA2IDQuNjE3LTMuOTMzIDMuMDc5LTIuMjI0IDQuNzg4LTMuNDIgNC42MTctMS4wMjYgNS40NzMuNjg0IDUuODE1IiBmaWxsPSIjNmQ2YjZkIi8+PHBhdGggZD0iTTU5LjQ0NSA0LjAyMWMtMS4xNzItLjAxMi0yLjU0My4xMDgtMi41NDMuMTA4TDQ1Ljc4NyA4LjQwNmwtNC4yNzcgNC4yNzYtMS44ODEgMy40MiAzLjkzNC0uMzQyczIuNTY1LTYuMzI4IDEyLjgyNi05LjQwNmM2LjQxMy0xLjkyNCA1LjAxLTIuMzEyIDMuMDU2LTIuMzMzek00OC4wMSAxNC45MDRsLTkuNDA2IDIuMjIzLTIuNzM3IDguODkzLjY4NCA1LjgxNCAxLjg4LTEuMTk1cy0zLjU5MS0xMS45NzQgMTAuMDktMTMuNjg0bC0uNTExLTIuMDV6IiBmaWxsPSIjZGNkOWQ4Ii8+PHBhdGggZD0iTTY5Ljk4Ni40NzVhMTEuMzE4IDExLjMxOCAwIDAgMC0zLjg1Ljc0OGMtMTAuMjYgMy45MzMtMTcuNzg1IDExLjExNS0xNy42MTUgMTUuNzMyLjI5MiA3Ljg2NC4xNzIgNy44Ny4xNzIgNy44N1M1MS42MDEgOS43NzQgNjYuMzEgNi44NjZjMTIuMTA4LTIuMzkzIDE4LjQ2OC41MTIgMjAuODYzIDMuMjQ4IDAgMC04LjI1LTkuODItMTcuMTg2LTkuNjR6bTE4LjMyOCAxMS4zNWMtLjU0NS0uMDAzLTQuOTEzLjEwOC01LjA3NCA0LjI3NyAwIDAgMCAuNjgzLjM0MiAxLjM2NyAwIDAgMy45MzQtNC40NDcgNi4zMjgtMi4wNTNsLTEuNTM5LTMuNTlzLS4wMi0uMDAyLS4wNTctLjAwMnptLTI1LjE4NSAyLjAxYy0uODQuMDItMS44NzYuMzcxLTMuMTQ5IDEuMjQtMy43NjIgMi41NjUtMy40MiA2LjE1Ny0yLjczNiA2Ljg0MS42ODQuNjg0LjQ5OSAyLjA2IDEuMDIgMS4xMTUuNTItLjk0NS4zNDktNC4wMjIgMi4yMy00Ljg3NyAxLjg4MS0uODU1IDQuOTY2LTEuODEyIDYuMTYtLjIyMiAwIDAtLjUyMi00LjE2Ni0zLjUyNS00LjA5NnptMjYuNDM3IDEwLjQ3NnMtMi44MTguNTk0LTMuMDc4IDMuMDc4Yy0uMjYgMi40ODMgMy4wNzkuNTEyIDMuNTkyLjM0MWwtLjUxNC0zLjQyem0tMjAuNjkzLjE3MXMtMy43NjIuNTEzLTMuNzYyIDIuOTA3IDQuMjc2IDIuMjIzIDUuNDczIDEuMTk3bC0xLjcxMS00LjEwNHpNMzguNDMyIDMwLjY0IDM0LjUgMzQuNzQybC42ODQgNS4xMzEgMi4wNSA1LjMgMi4yMjUuNjg2Yy0zLjI1LTMuOTMzLTEuNzExLTYuNjcxLTEuMDI3LTEwLjQzMy42ODMtMy43NjMgNy4xODMuMTcyIDcuMTgzLjE3MmwtLjE3Mi0yLjU2Ny0yLjU2NC0yLjA1LTQuNDQ3LS4zNDJ6bTM4LjYwOSA3Ljg0N2MtMS4xMjYtLjA1LTEuNTU2IDMuNjM1LTEuNjQ4IDQuNTg2LjMxLS45MiAzLjE3MS0yLjc3IDMuMTcxLTIuNzdzMC0xLjM5Ni0xLjM5Ni0xLjc5NGEuNTQ5LjU0OSAwIDAgMC0uMTI3LS4wMjJ6bS0xLjY0OCA0LjU4NmEuMzk0LjM5NCAwIDAgMC0uMDIuMjIxcy4wMDYtLjA4LjAyLS4yMnptLTI5LjI0OCAxLjMwMS0yLjI0IDIuMTcuNTEzIDcuNTI1IDUuNDczIDguNTUxczYuMTQzIDEuMzg2IDUuNDcyLjg1NmMtNy4zNTMtNS44MTUtNy44NjYtMTYuNTktOC4wMzctMTcuNzg4LS4xNy0xLjE5Ni0xLjE4MS0xLjMxNC0xLjE4MS0xLjMxNHptMTkuMjQ0IDIuNTQ5Yy0uNjc1LjAxLTEuMTIyLjIyOC0xLjI0OC4zOTYtLjQyNy41Ny40NTcgMy42NzIuNDU3IDMuNjcybC44NTUuMTcyYy0uMTctMy40MjEgMS44ODEtMy43NjQgMS44ODEtMy43NjQtLjc1OC0uMzY0LTEuNDItLjQ4NC0xLjk0NS0uNDc2eiIgZmlsbD0iI2Y3ZTRjZCIvPjxwYXRoIGQ9Im00NS42MTUgNTkuMzctMTYuNzYgMTEuMjg2IDEuODgxIDUuMzAzIDQuNDQ4IDE5LjE1Mi4xNyAxMC4wOTIgMi4zOTQuODU0YzMuNDItOC4yMS0zLjI0OC0zNC43MTctMy4yNDgtMzQuNzE3bDE2LjA3NC03LjE4Mi00Ljk1OS00Ljc4OXptNi42MTQgMTkuNDQ4LS40NTggMS4wNzNzLS4zNDEgMy4wNzgtLjM0MSAzLjkzM2MwIC44NTYuMzQxIDguMDQuMzQxIDguMDRoMi43MzdWODEuNjAxbC0yLjI4LTIuNzg0em0uMDU2IDE0LjU4NC03LjY5NS4zNDIgMi4yMjIgMS41NCA1LjQ3My44NTV2LTIuNzM3em0zNS43NDItMzYuNDI3LTMuMjQ4IDMuNTkxTDk2Ljc1IDY5LjQ2bC4zNDItNC4xMDQtOS4wNjUtOC4zOHptLTMuNDIgMzMuNTItNS45ODQgMS4xOTYuODU0IDQuNzljMi4yMjMgMS4wMjYgNS45ODYtMS43MTEgNS45ODYtMS43MTFsLS44NTYtNC4yNzZ6IiBmaWxsPSIjNDk3MjhiIi8+PHBhdGggZD0iTTUwLjU3NCA2Mi42MnYxLjUzOGwyLjE3NCAyLjM5NSA2Ljg0IDMuMDc4LjE3Mi01LjEyOS00LjczOS0uNTE2LTQuNDQ3LTEuMzY3em01MC4wNTkgMjQuMjg0LTUuNDczIDEuNzExLTUuMjUgMi41NjMtMi43ODktLjUxLTIuMTcyLjg1MyAxLjgzMiAxNC4zNjggNi42NjgtMS44ODMgMTIuNjU2LS42ODQgMS44ODEtNS44MTQtMy40Mi0xMC4wOS0zLjkzMy0uNTE0em0tMjIuMDEgNC43ODctOS45Ny4wMDItMTYuMDI2Ljg1NC4yOTEgNy44NjkgMS43NjIgMTAuNiAzLjU0IDE0LjM2OSA3Ljg2NiAxLjcwOSAxMi45OTgtMS4wMjYuMTctMi41NjYtMS41NC0xMy44NTIuOTA5LTE3Ljk1OXptMS4zMTctMS4zNjYtMy43NjMtOS41NzctMy45MzQtNS42NDRzLjg1NS0yLjM5NCAyLjA1My0yLjM5NGgzLjkzM2wzLjc2MiAxLjM2OC0uMzQxIDYuMzI4LTEuNzEgOS45MiIgZmlsbD0iI2ZmZiIvPjxwYXRoIGQ9Im01Mi4xMTUgNjUuMDE0LS41MTMuNjg1IDIuOTA4IDIuMDUxIDQuNzg3IDEuMDI1LS4xNy0yLjA1Yy0xLjcxLjUxMy03LjAxMi0xLjcxMS03LjAxMi0xLjcxMXptMjMuNzcgNy4zNTMtMy45MzIuNTEyIDYuNjcgMTUuNzM0IDEuMzY3LjE3Mi42ODQtMS43MXMtNC43OS05LjIzNi00Ljc5LTEwLjYwNGMwIDAgLjg1Ni0yLjA1MiAyLjA1My0xLjU0IDEuMTk4LjUxNCAzLjc2NCAxLjg4MiAzLjc2NCAxLjg4MnYtMy4yNDlsLTUuODE2LTEuMTk3em0xNi4yNDggMTcuOTU3LTIuMjIzLjg1NCAxLjg4MSA5LjQwNmMtLjY4NC0uMTcxLTUuMTMgMS44ODMtNS4xMyAxLjg4M2wuNTEgMi43MzYgMS44ODQtLjY4NSA1Ljk4NC0uODU0IDEuNzExIDIuMjIzIDUuMTMuMTcgMy4wNzktLjY4NCAyLjczNi00LjEwMy0uMTcyLTMuMDgtMS44OC01LjQ3M2MuNTEzIDQuMTA0LTEuNTQgOC4wMzktMS41NCA4LjAzOS0uODU1IDAtMTAuNDMxLS41MTQtMTAuNDMxLS41MTQgMC0xLjAyNi0xLjU0LTkuOTE4LTEuNTQtOS45MTh6bS0xMy4xNy4xNy0yLjU2NSAxLjAyN3MtLjg1NCAxNy43ODcgMS43MTEgMzAuNDQyYzAgMC01LjEzIDMuMjQ5LTEyLjY1NiA0LjEwM2wxNC4zNjUtLjUxMyAxLjcxMS0xLjAyNi0yLjA1Mi0yOC4wNDctLjUxNC01Ljk4NnptNC40NyAxOC4yOTdjLS43MzYuMDA0LTEuODMuNTI2LTIuNjAzLjQ3NS0uMTEzIDIuNzAxLjI2NiA3LjAzMy4zOTMgOS44NjcgMS43OTYuMDAyIDIuNTY1LS4zOTIgMy45MDYtLjg0NC4xNTEtMy4zMzUtMS4wNTctNi40MjItMS40MDQtOS40NjdhMS4xMDUgMS4xMDUgMCAwIDAtLjI5MS0uMDMxeiIgZmlsbD0iI2RjZDlkOCIvPjxwYXRoIGQ9Ik04NC43NzcgNjMuODE4Yy0yLjE5Mi4xMDItNS4xNDggMi44OTctNi41MjUgMy4zODcuMTc4LjUxMi40Ny45MTcuNDkyIDEuNTcuOTY1LS4yMzggMi4xNC0uMDc1IDIuOTc3LjMzNi0uOTY4LjEwOC0yLjAzOC4xMDItMi42NzguNTYzLS4yMzUuNjc3LjA1NSAxLjYtLjEwMiAyLjU0IDIuMjk2LjY0OCA0LjkxOS45OTQgNy44MiAxLjA3OS41NjYtLjczMy43NTgtMi4xMzMuNjktMy41MTgtLjA4LTEuNjctLjUxOS01LjEwNC0xLjU1LTUuNzA1LS4zNC0uMTk3LS43MTgtLjI3LTEuMTI0LS4yNTJ6bS0yMi41MzUuNzQ4Yy0yLjMyNC4wNS0yLjA4MiA0LjEwOC0xLjk2OSA2LjU5Mi4wOTUgMi4wOTggMS4xODggNC4zMTggMS42NiA1LjcxMy4yMjQuNjUuMjc0IDEuMzQyLjgzIDEuNDcuOTg0LjIzIDQuMjMtMS4wNjcgNS4xNTUtMS41NzEgMS45NTUtMS4wNjYgMy40NzMtMi43NiA1LjEzMy0zLjg5N2wuMDYyLTEuNjU4Yy0uOTk4LS40OTgtMi4xNS0uODUyLTMuNjE3LS45MTYuOTk1LS41IDIuNDU3LS40OTMgMy4zNjMtMS4wODhsLjAyNi0uNjYyYy0xLjY1NC0uMTI3LTIuMjg1LS44NjQtMy4zNzUtMS40NjEtMS43ODQtLjk3NC00LjQ2NC0yLjAzNy02Ljc2OC0yLjQ3N2EyLjQgMi40IDAgMCAwLS41LS4wNDV6bTEzLjQzIDMuNDU3Yy0uNDQyLjAwNC0uOTY5LjE3MS0xLjU3LjU3My0uMTE0IDEuMjU5LjE4IDEuNjcuNDMzIDMuMTE1IDMuNDkzIDEuMDkzIDMuNTI1LTMuNzA0IDEuMTM3LTMuNjg4eiIgZmlsbD0iI2QzMzgzMyIvPjxwYXRoIGQ9Im04NC41NTcgNjIuNjIxLTYuNDk4IDMuNzYyLS4zNDQgMS44OHYzLjc2MmwyLjM5NC44NTZzLTEuMTk3LTEuNzEtLjM0MS0yLjIyM2MuODU1LS41MTMgMS43MTEgMCAyLjIyNC0uODU1LjUxMy0uODU2IDAtMS4zNjkuMTctMi4zOTUuMTcxLTEuMDI2IDEuMDI2LTEuMTk2IDEuODgxLTEuMzY3Ljg1NS0uMTcgMy4yNS0uNTEzIDMuNTkyLjM0MmwtMS4wMjYtMy4wNzh6bS0yMS41MzYgMS4wM2MtLjg0Ny0uMDE4LTEuNjE5LjEyMi0yLjE4NS41MDctNC4wMjEgMi43MzUtLjc4IDkuMDU2IDEuMTkgMTIuNzc0YTU1MS41NiA1NTEuNTYgMCAwIDAtLjUzOC02LjQwOWMtLjM2Mi0zLjk4Ljk1Ny0zLjI4NSA0LjQwOC0zLjI4NS41MjggMCAzLjI0NS42MjggMy40NCAxLjAyNi45MzMgMS45MDUtMS41NiAxLjQ4MSAxLjA3NCAyLjkxOCAyLjIyNCAxLjIxMiA2LjE1Mi0uNzM3IDUuMjU0LTMuNDMyLS41MDMtLjYtMi42Mi0uMTg3LTMuMzc5LS41OGwtNC4wMDgtMi4wNzhjLTEuMTY4LS42MDctMy4zOTItMS40MDMtNS4yNTYtMS40NDJabS0uOTk2IDEzLjI4Yy4wNDIuNTMyLjA4NiAxLjA2My4xMjcgMS41OTRsLjYxMi0uMTgzYy0uMjA0LS40MDUtLjQ2LS44ODMtLjczOS0xLjQxeiIgZmlsbD0iI2VmM2QzYSIvPjxwYXRoIGQ9Ik02Ny41NjUuMDA2Yy0zLjU5LjA2OC03LjEwMS42NjUtMTAuMDI3IDEuNzQyLTIuMTc1LjgtNC4yODIgMS41MTYtNi4xOTIgMi42MzgtNS4xMTEgMy0xMC41MzcgNS4wMDgtMTIuMDUyIDExLjA0Ny0zLjczNCAxLjY3Mi00Ljg2IDYuNDUxLTQuNjcyIDExLjk5Ny4wMzYgMS4wODEuNjIzIDIuNDMyLjQyIDMuNDQ5LS4xMDQuNTE2LS44MDQgMS4xNzctLjk0NCAxLjUxMy0xLjc5IDQuMjY3LS4zNTUgOS44NzYgMS43MTMgMTIuOTA5IDEuMjUgMS44MzIgMy4zMiAzLjQ1NyA2LjA1IDMuODg4LjEwOSAxLjYzNS41MDIgMy4wNDIgMS4yNTcgNC42OTkuNDc4IDEuMDQ4IDIuMjYzIDIuOTMyIDEuNjA2IDQuMjY5LS4zMy42NzQtMy4yMzcgMi4xMzctNC4yMDEgMi43MTYtMy4yNTUgMS45NTItNS42MTQgMy4xNDktOC42MTkgNS4zMTItMS45NDQgMS40LTQuOTg1IDEuNTgtNC41MDUgNC44MDguMzIzIDIuMTc4IDEuNTYzIDQuODc4IDIuMjcyIDcuMDYyLjc2OCAyLjM1NyAxLjg2OCA0LjUxNiAyLjUgNi45NjIgMS40MDUgNS40NTEgMS42OTggMTAuNTg3IDIuMDQgMTUuOTExLjEzNCAyLjA4NS0uMDg4IDQuMjkxLjQ1MyA1LjQ0Mi41NTggMS4xOSAyLjYyNiAxLjU3IDQuMTIgMi4yNjQgNC4zMTUgMS45OTUgOC44OTMgNS4wNDIgMTQuNTUyIDQuNDM3IDEuMzQ5IDQuNTM2IDIuNjI0IDkuMzY3IDQuMjQzIDEzLjM0IDUuODAzIDIuMDg2IDE0Ljk2NCAxLjc2IDIwLjk5NyAxLjAzNSAxLjgzNC0uMjIyIDMuNzY5LTEuMTI3IDQuMi0yLjcxNy0uMTI5LS45OC0uMjcyLTEuOTUtLjIxLTMuMTA5IDEuODg2LS4zOSA0LjQ1My0uNzEyIDQuODY4LTIuOC41ODItMi45MjgtMS44NDktNy4xMjMtMS4wMzgtMTAuMzM2IDEuMDkyLS4zNTQgMi4yNTgtLjYzMSAyLjA4NC0yLjM1NSAxLjg0LS45NTggNC4wMjMtMS4xNzIgNi4zNTMtMS4wODIuMy41OC43MjcgMS4xMzggMS4xMTEgMS40NTcgMy4yNjQuNjU2IDYuNDI1LjcxIDkuMTM1LS4xNzQgMy4wNjctMS4wMDIgNC41My03LjI3NSAzLjgyOS0xMC4yNi0uNDk4LTIuMTE1LTEuNjI0LTUuNTgtMi41ODQtNy42MjgtMi42MDEtNS41Ni0xMC4zNTMtMi4wNy0xNC41MDItLjAwOCAyLjAxMy01LjI5NSAzLjc0NC0xMC43ODUgNS41Mi0xNi43MjUuNTMtMS43OCAxLjU3OC00LjMwMyAxLjM0My02LjE0Ny0uMjItMS43MzQtMi45MjQtMy41NTYtNC4zNDctNC45My0uNzkxLS43NjItNC40NzktMy41NjItNC42OTMtNC42MS0uMjA3LTEuMDE0IDEuNTA0LTMuMzExIDIuMDU0LTQuNDYuNzktMS42NDQgMS4zNTYtMy42NTYgMS43NDUtNS4wMjUgMi45LTEwLjE5NiAzLjE5NS0yNC4yMDQtLjk1MS0zMi41ODYtMS41Ny0zLjE3NS01Ljk2LTcuNTYtOC43MDUtOS42MzdDNzkuNzQgMS4yNTQgNzMuNTQ2LS4xMDYgNjcuNTY1LjAwNlptLjQ3OCAyLjg0QzcyLjg5IDIuNzk5IDc4LjI4IDQuNTA5IDgxLjkzIDYuNTY4YzMuMDUgMS43MiA1LjMgNS4wNDggNy40NDYgNy44MTctMy4wMDktLjg5My01LjU3LjY0Mi01LjEwMyAzLjEyNCAyLjUxOS0yLjMwOSA2LjgyMi0uMDI1IDguMDk1IDIuNTI4IDEuMjE3IDIuNDQgMS4yMDkgNi4wNTcgMS4zOTYgOS42ODUuNDUzIDguNzk4LTEuNjEgMTcuODc1LTYuMDMxIDI0LjIzNC0xLjE4MiAxLjY5OC0yLjE3NCAzLjU1NC0zLjgzNiA0LjcyMy00LjAwNiAyLjgxMy0xMC4wOTUgNS4zNjMtMTUuMzA5IDMuNjE0LTYuODktMi4zMTItMTAuMDItNi45MDMtMTMuODEtMTIuMTYuMTAzIDIuODg4IDIuMTM0IDUuMjU4IDQuMTQgNy40NjcgMS43NDUgMS45MjUgMy44NTEgNC4xIDYuMTE3IDQuOTk4LTEuODktLjQ0NC00Ljc5Mi0uNTgzLTUuNTggMS4xMTQtNC40MS0uMjkzLTguNTA4LS43NDQtMTAuNTk0LTMuNzMzLTEuNjQ0LTIuMzU2LTMuMzE0LTYuMzYzLTQuMDYzLTkuNDU4LS4xNTMtLjYzNi0uNDE1LTEuOTktLjM1MS0yLjMzNy4yNDYtMS4zNDMgMi42MzgtMS45MzMgMS42OTctMy44MS0xLjczNi0uMDE2LTIuMTI3IDEuNTgtMy43MiAxLjczOC00LjEyNS40MDgtNy4wMzUtNS40NjctNi44NDgtOS4wMTIuMTU5LTMuMDE0IDIuNzA3LTUuODk4IDYuMTkyLTUuNTE3IDIuNDYzLjI3IDMuMyAyLjk1OCAzLjc3OCA1LjM1IDEuNDIuMDc2IDMuNDcxLS4wNjEgNC4xNDMtMS4xNjktLjA5Ny0yLjcwMy0xLjM1Mi00Ljg3MS0xLjI2Ni03LjM1NS4xNjItNC42NjggMi43MDUtOC44OC43NDMtMTMuNDc4IDIuMS00Ljc2NCA4LjI2MS04LjUyNCAxMi44MTgtMTAuNzk3IDEuNzY1LS44OCAzLjg1Ni0xLjI2NCA2LjA2LTEuMjg2ek01NS41MDUgNS4xOTJjLjE5OC4wMzIuMzguMTg2LjU1Ni4zNzQtLjAzLjgxMS0uODMuNzk0LTEuMzcgMS4wNTQtLjg0IDEuMDMzLTIuMDY4IDEuNTE2LTMuMDkgMi42NDgtMS4wNDkgMS4xNi0yLjIyMiA0LjI3Ni0zLjYxMiA0LjYyLS42OTcuMTc0LTEuNDkzLS4xMi0yLjEtLjA4LTEuNjA1LjEwMS0yLjczNS45MjMtNC4zNjMgMS4xNTkgMi4xMDItNC41OTUgOC42NTktOC4zMTMgMTMuNzc0LTkuNzYyYS40NjguNDY4IDAgMCAxIC4yMDUtLjAxM3ptOC43NCA5Ljk3M2MtMi42MzcuMDAzLTUuNjQgMi44MjItNi40MjMgNC45NzMtLjMxOC44NzQtLjgyIDIuNTkuNDQxIDIuODk1IDEuNDEzLTMuMTQ5IDMuNzI5LTYuMTg1IDguMzktNS4xLjg5NS0xLjQ3MS0uNzA1LTIuNTUyLTEuODg3LTIuNzNhMy40NzcgMy40NzcgMCAwIDAtLjUyMi0uMDM4em0tMTYuNjU2LjQ4YzEuODAyIDQuNTg2LTEuMjkzIDEwLjAzNi0uMTQgMTUuMDUxLjM1MyAxLjUzNiAxLjU3NCAzLjkyLS4zNzYgMy45NzIuMDUxLTQuMzctNS4zNy03LjE0My05LjQ1NS00LjU3NC0uMjczLTMuMzE0LS43NDYtNy45NzMgMS41MTQtMTAuNDU5IDIuMDg1LTIuMjk2IDQuOTU5LTMuNzI1IDguNDU3LTMuOTl6bTQxLjc3NiA3LjU5N2MtLjE0OSAyLjUxNy43ODYgNC4wMzIgMS40MzUgNS44MTItMS4xMjIuNzA2LTMuMzA1LjI2Ni00LjU3LjgxOS0uMDkgMy43MjMgNS43NiAxLjg4OCA2LjY1LS4xODUtMS4zMy0xLjkzMi0yLjI0MS00LjI1LTMuMjk1LTYuNDM3bC0uMjItLjAxem0tMjAuMzI1LjA1N2MtLjY5MiAxLjk2NCAxLjE4OCA1LjI5OCAyLjI0MiA2Ljk4NC0xLjM3MyAxLjMzMy0zLjg0Mi4yMjYtNS42NzkuMTQtMS43NTMgMi43NjkgMy40MjMgMy4yOSA1LjY0NCAyLjYzNC42MDgtLjE3OSAxLjY2LTEuMDkgMS44MDUtMS41LjYxNy0xLjczMy0uNjI3LTIuNDkzLTEuMjY3LTMuMTE3LTEuNDItMS4zODQtMS43NDYtMy4zMS0yLjc0NS01LjE0MXptMTAuNTQ5IDEuODFjLS4xMzQtLjAxOC0uMjk1LjAzLS40ODguMTctLjEyNSA0LjYxNiAzLjMwNSA4LjQzNyA1Ljg2MyAxMS41MiAxLjI1IDEuNTA1IDIuNzU2IDIuMzY1IDEuMzY5IDQuNzAzLTIuMjM2Ljg1LTUuODU1IDMuMjg1LTguOTY0IDIuNzUzLTEuNjUtLjI4Mi0xLjI3OC0yLjE1NS0xLjg3LTMuMTczLTEuMTM4IDEuNDk3LS42OTIgMy43NjIuNDggNC43OCA1LjQ3OS41NDIgOS4yMDgtMS43OTQgMTIuNTUyLTMuOTQzLS4xMzMtLjg0MiAxLjAxMi0yLjM2LjY5NC0zLjYyNi0uMTEtLjQzNi0xLjEwMi0xLjA2OC0xLjcwNC0xLjcyNy0yLjQ1My0yLjY3NS01LjgxNC02LjY3Mi03LjE1LTkuNzk4LS4xMi0uMjgtLjIwMS0xLjU4My0uNzgyLTEuNjZ6bS0zOC45OCA4LjYzNWMtMS4yNjctLjAyLTIuNDE1LjgxNS0yLjY4NiAyLjc4My41NjItLjM2OCAxLjAxNS0xLjQxNSAyLjAyOC0uOTE3LS44OSAxLjczNy0uNjc2IDUuMTIuNTM1IDYuMjItLjAwNy0yLjA2Mi0uMzI4LTUuNTg3IDEuNDMtNS40OCAxLjIzMS4wNzQgMS40OCAyLjcxIDIuNTI4IDMuMzA4LjcyMy0zLjQ3OC0xLjcyMi01Ljg4Mi0zLjgzNS01LjkxNHptNTAuMDUxIDEwLjM2Yy0yLjY3MyAxLjIyLTQuODMgMi45OTctOC4zMjIgMy4zMzItLjE2OS41NzctLjA5NyAyLjAzMy0uMDA0IDIuOTkgNC41NjctLjA5NSA2Ljc3LTMuMzU4IDguMzI2LTYuMzIxem0tMjEuODg0IDEuOTIxYzEuMzM1IDMuNTczIDcuMzUzIDQuODMzIDEyLjQ0MyA0LjU3OS0uMDA4LTEuMDU4LS4wMDMtMi4xMy0uMjE1LTIuOTk4LTMuOTYuMTE2LTkuMzE1LS4wNDktMTIuMjI4LTEuNTh6bS0uNTUzIDIuODU4Yy0yLjU3My4wMDMtLjQwMyAxLjQzNC4wMzMgMS45OTQuOTAyIDEuMTYgMS45NiAzLjEzOSAzLjYwOCA0LjAxNSAyLjU5OCAxLjM4IDcuNzU4LjgwMSA5LjYzLjA0LjY5Mi0uMjggMS4yNS0xLjA1NyAxLjUwNy0xLjcxMy01Ljg0LjE0LTEyLjc2My43MjItMTQuNzc4LTQuMzM2em0xOS40MzYgOS44M2MyIDEuNjExIDMuMjA4IDMuMTI3IDUuMTI2IDQuODUgMS4wNC45MzMgMy4wODggMi4wNTEgMy4yOTUgMy41Ni4xMTUuODQyLS40MDEgMi45MDUtLjU5MSAzLjg1Mi0uODQgNC4xNTQtMi43MyA5LjY0Mi00LjUzIDEzLjk5NS0uNjU0IDEuNTgyLTEuMjggMy41Ni0yLjE0MyAzLjkwMi0yLjM2NC45MzYtNS4yMzMtLjA5MS03LjI0MiAxLjE2IDIuNy00LjY4NSA1LjY0LTkuMTExIDguMjg2LTEzLjg1Mi0uNDAzLS45NC0xLjM5MS0xLjM0MS0xLjY3OC0yLjM4OCAxLjg1OC0zLjUwOSAxLjAwNC0xNC40MDMtMy43MzgtMTIuMTAzLjY2My0uOTc0IDIuNDA0LTEuNzc4IDMuMjE1LTIuOTc2em0tNDEuNzI0IDIuNDhjLjQzMS0uMTcgMy41NzcgMy45MjMgNC4wNDIgNC4yNTUgMi41NSAxLjgxIDUuNzE2IDMuMjQgOC42NzcgNC42NTMuMTgxIDEuMzU5LjYgMy4xMiAxLjMzOCA1LjQ3Ni44MTMgMi42MDIgMS40ODQgNi4yNzQgNC45MjIgNC4zOTgtLjMyNyAxLjQ4Ni0yLjIzNyAyLjQwOC0xLjcxIDQuMTQxLjMzIDEuMDg3IDMuOTQgMi40MyA1LjA4NCAzLjA3NiAyLjExMSAxLjE5IDQuMDM3IDEuODQ4IDUuNjU5IDIuNTQ0LTcuMzcuMjAyLTE0LjI5MS44MDItMjEuMTAyIDEuNzI5LS44MTYtMS4yNjQtLjQ4Ny0zLjIxMi0uNTczLTUuMjI1LS4wOTQtMi4xODYuODE1LTcuMTE0LS4wNDQtNy40Mi0uOTcxLS4zNDUtMS4xNTMgMS42MjMtMS4xODggMi4wNTctLjE4MiAyLjMwOCAxLjA5OSA3LjE5NS0uMTY0IDkuOTU4LTEuMzgyLS4zOTEtMi4wNjMtMS40My0zLjM1OC0xLjkwMi0uNTA4IDEuNiAxLjA1MiAxLjY3Ny44OTIgMi42OTMtLjIxMiAxLjM0My0yLjc1Ny4yMi0yLjc0MyAyLjIxNyAxLjY1Ny4yNjYgNC4xOTktLjUxNSA1Ljk3LjIzMi40NjMgNS40MzMgMS4yMDcgMTAuNTgxIDIuMDIyIDE2LjM1Mi03LjA0OC0uMzY2LTExLjYxLTMuODY4LTE2LjgwNS02LjI5Ny0uMzIzLTExLjQ5LTIuMTU0LTIzLjQxLTYuNjg4LTMzLjE0IDQuNzU2LTMuNjcgMTAuMDc4LTcuNTUyIDE1Ljc3LTkuNzk2em0zOS4wODIgMi42MjZjLjMxNi4wMTUuNjEzLjA5NC44ODQuMjUyIDEuMDMyLjYwMiAxLjQ3MSA0LjAzNiAxLjU1MSA1LjcwNi4wNjcgMS4zODUtLjEyNiAyLjc4My0uNjkgMy41MTctMi45MDItLjA4NS01LjUyNC0uNDMtNy44Mi0xLjA3OC4xNTctLjk0LS4xMzUtMS44NjUuMS0yLjU0My42MzktLjQ2IDEuNzExLS40NTIgMi42NzgtLjU2LS44MzYtLjQxMi0yLjAxLS41NzUtMi45NzUtLjMzNy0uMDIzLS42NTQtLjMxNi0xLjA1OC0uNDkzLTEuNTcgMS40MjctLjUwOSA0LjU1NC0zLjQ5NiA2Ljc2NS0zLjM4N3ptLTUuMi4xMjdjLTEuMjE4Ljc5NC0yLjI1NSAxLjc4Ny0zLjQyNCAyLjYzNS0yLjU5My4xMjktNC4wMDgtLjE3OS01LjkxMy0xLjY2OC4wMy0uMTIuMjIyLS4wNjYuMjMtLjIxMyAyLjc3NSAxLjIzNyA2LjMwNC0uNTA0IDkuMTA2LS43NTR6bS0yNy4zNDcuMDQ5YzEuNDQ3IDEuMDA1IDQuMjQ3Ljc1NyA2LjM3OCAxLjEzMS4xMS42ODMtLjQ0MiAxLjU4LS40MzIgMi41MzEtMS43OTMtLjExLTcuNDI3LTIuMTYtNS45NDYtMy42NjJ6bTkuNzcyLjU3M2MuMTU1LS4wMDQuMzIxLjAxMS41LjA0NSAyLjMwNC40NCA0Ljk4NCAxLjUwMiA2Ljc2OCAyLjQ3NyAxLjA5LjU5NiAxLjcyMSAxLjMzMiAzLjM3NSAxLjQ2LS4wMDcuMjItLjAxNy40NC0uMDI1LjY2Mi0uOTA2LjU5NS0yLjM2OS41ODgtMy4zNjMgMS4wODggMS40NjYuMDY0IDIuNjIuNDE3IDMuNjE4LjkxNWwtLjA2NSAxLjY1OWMtMS42NjEgMS4xMzctMy4xNzggMi44My01LjEzMyAzLjg5Ni0uOTI1LjUwNC00LjE3IDEuODAyLTUuMTUzIDEuNTcyLS41NTctLjEyOS0uNjA3LS44Mi0uODMtMS40Ny0uNDczLTEuMzk1LTEuNTY0LTMuNjE0LTEuNjYtNS43MTItLjExMy0yLjQ4NS0uMzU2LTYuNTQ1IDEuOTY4LTYuNTkyem0xMy4yOTQgMy40NjNjLjEzNy0uMDExLjI2Ny0uMDA3LjM5LjAxMSAyLjEyNi4zMTMgMS45NzIgNC43MjItMS4zOTIgMy42Ny0uMjUzLTEuNDQ0LS41NDYtMS44NTYtLjQzMy0zLjExNS41NDItLjM2MSAxLjAyMi0uNTMzIDEuNDM1LS41NjZ6bTEuOTM2IDUuMDE0YzEuMjE4LjEzIDIuMTgyIDEuODEgMy45MiAxLjctLjI3OSA0LjUzMi0uMTMzIDkuMDgtMS4zOTggMTMuMjMyLTIuMzU3LTQuMzIyLTMuNzQ0LTkuNTQtNi43OTUtMTMuMjE3LjMyMi0uMzQyLjYxLS43MjEuOTI2LTEuMDcxIDEuMzgyLjU3OCAyLjI4NC0uNzU4IDMuMzQ3LS42NDR6bTcuMDA4IDEuNDQyYzEuNjc4LS4wMTMgMy4wNTIgMS4wODQgMy44MDcgMi4yOTctMi4zNjQgNC4wNS00LjYyNiA4LjIwOC03LjQzIDExLjc4IDEuMTc1LTMuNDU4IDEuNjc5LTkuMjQ1IDEuODU3LTEzLjY1N2E0LjIyMiA0LjIyMiAwIDAgMSAxLjc2Ni0uNDJ6TTcxLjcxIDc2LjAzYzIuOCAzLjU1NCA0LjUwNCA4LjEyNSA2LjM4IDEyLjUzNy00LjQzMi0xLjMzNi04Ljk2LTMuNTA0LTEyLjg0NC01LjcwMi43NjItMy4zMDQgMy43NS01LjAxNiA2LjQ2NC02LjgzNXptMjkuNTExIDExLjcyOGMxLjIxNy4wMyAyLjQyNiAxLjAxOCAyLjk1NSAxLjgxOS45NTYgMS40NDQgMS44NDkgNS42OTUgMi4zNSA3Ljk1Mi43NDcgMy4zNTktLjkzMiA2LjYyOS0zLjYwMyA3LjI3N3YuMDAxYy0xLjk0NC40NzItNC45MjYuNTk2LTYuMTk5LS4wMTkgMS41NTgtLjg1MSAzLjg5OS0uODU2IDUuNzAyLTEuNDQtMi41ODMtMS4xMTItNi40MDUtLjA2NC05LjUxMS0uMjU4LS4zNzUtMy44MzUtLjY1OC03Ljk5My0xLjU2Ny0xMS4wMiAxLjgxMy0xLjkyNyA2LjE5My0yLjM5IDguNjgtMy45ODFhMi4wNzcgMi4wNzcgMCAwIDEgMS4xOTMtLjMzMXptLS4yMTEgMy41NzhjLTMuMTgzLjA5NC01LjY3LjkzNy03LjA5IDIuOTM4IDIuNTgzLjE2NSA0LjQ0My0yLjQwOCA3LjA5LTIuOTM4em0tMTIuNTQuNzg1Yy4yMjUuMDEuNDQ3LjAzNS42Ni4wODMgMS42OTIgMi45MSAyLjA1NiA3Ljc0OSAyIDExLjI2MS0xLjA1NS4yMDQtMS43NC44MDgtMy4wMi43NjgtLjMyNy00LjAwMS0xLjI1Ni04LjIwOC0xLjYzOC0xMi4wMi42MS0uMDEyIDEuMzItLjEyIDEuOTk3LS4wOTJ6bS0xOS42MDMuMDQzYzMuMzQtLjA1NCA2LjU4LjE0MiA5LjM4NS43MjYuNjg1IDQuNDUzLjQzIDguODQ1LjkzIDEzLjIxLjY2MiA1LjgwOC4xNjYgMTIuNDM0IDEuMyAxNy44NzYtNi4xNzMgMS45MTMtMTQuNTkgMS43MjgtMjEuNTc0LS4zOTItMy4xNDctOS42NDMtNC44NjMtMTguNzk2LTYuMDQ3LTI5LjY4NSA0LjU4Ny0uODU4IDEwLjQzNy0xLjY0NSAxNi4wMDYtMS43MzV6bTE0LjgyNC4zODRjMS4xMDMgMy45ODcgMS4wMzcgOS4wNiAxLjU3OSAxMy41NjctMS42NjguMzY2LTIuODg4LjU0NS00LjY4My44MTUtLjM1Ny00LjY4Mi0uNjMtOS4yOTUtLjU2Ni0xMy45NzEgMS4yNzItLjQyNiAyLjM5NC0uNCAzLjY3LS40MTF6bTE0LjQ4NiAyLjI5NmMtMS4yNi4wMTYtMi4zOTQuMjktMi44OCAxLjAzMiAyLjE5LjE4IDQuNzIyLS4xNyA2Ljg4LS4zOTgtLjk4NC0uMzQtMi41NzItLjY1My00LS42MzR6bS0uMzYxIDMuMjRjLTEuMTI4LjAxNC0yLjEyMy4yMjgtMi42MzQuNzc3IDIuMzA0LjE5MyA1LjMxOC4yNDEgNy43NDMuMTg5LS45ODMtLjQ1OC0zLjIzLS45OS01LjExLS45NjZ6TTgzLjA5OCAxMDguODJjLjIzNi0uMDM3LjQ1LS4wNDUuNjI3LjAwMi4zNDggMy4wNDUgMS41NTUgNi4xMzEgMS40MDQgOS40NjYtMS4zNC40NTItMi4xMS44NDgtMy45MDcuODQ1LS4xMjYtMi44MzQtLjUwNi03LjE2Ni0uMzkyLTkuODY4LjY2Mi4wNDQgMS41NjEtLjMzNCAyLjI2OC0uNDQ1eiIgZmlsbD0iIzIzMWYyMCIvPjxwYXRoIGQ9Ik04NC40OCA3NC40ODZhNC4yMjUgNC4yMjUgMCAwIDAtMS43NjcuNDJjLS4xNzggNC40MTItLjY4IDEwLjE5OS0xLjg1NiAxMy42NTYgMi44MDUtMy41NzEgNS4wNjYtNy43MyA3LjQzLTExLjc3OS0uNzU2LTEuMjEzLTIuMTI5LTIuMzEtMy44MDctMi4yOTd6TTcxLjcxIDc2LjAzYy0yLjcxNCAxLjgyLTUuNyAzLjUzMi02LjQ2MyA2LjgzNiAzLjg4NCAyLjE5OCA4LjQxMiA0LjM2NSAxMi44NDQgNS43MDEtMS44NzYtNC40MS0zLjU4LTguOTgyLTYuMzgxLTEyLjUzN3oiIGZpbGw9IiM4MWIwYzQiLz48cGF0aCBkPSJNNzkuODE3IDYzLjk0NWMtMS4yMTguNzk1LTIuMjU1IDEuNzg3LTMuNDI0IDIuNjM2LTIuNTkzLjEyOC00LjAwOC0uMTgtNS45MTMtMS42NjkuMDMxLS4xMi4yMjMtLjA2Ni4yMy0uMjEzIDIuNzc1IDEuMjM3IDYuMzA0LS41MDQgOS4xMDctLjc1NCIgZmlsbD0iI2YwZDZiNyIvPjxwYXRoIGQ9Ik03OS4xMzUgNzYuNzI4YS45NC45NCAwIDEgMS0xLjg4MSAwIC45NC45NCAwIDAgMSAxLjg4MSAwbS45NDEgNC4zNjFhLjk0Ljk0IDAgMSAxLTEuODgyIDAgLjk0Ljk0IDAgMCAxIDEuODgyIDAiIGZpbGw9IiMxZDE5MTkiLz48L3N2Zz4=;spacing=0;" vertex="1" parent="1">
          <mxGeometry x="615" y="672.2" width="68.87" height="94.79" as="geometry" />
        </mxCell>
        <mxCell id="y-YY-3M0lb4zFeIpcYg8-3" value="Jenkins" style="text;html=1;align=center;verticalAlign=middle;resizable=0;points=[];autosize=1;strokeColor=none;fillColor=none;" vertex="1" parent="1">
          <mxGeometry x="619.44" y="758.0999999999999" width="60" height="30" as="geometry" />
        </mxCell>
      </root>
    </mxGraphModel>
  </diagram>
</mxfile>
